<svg width="145" height="145" viewBox="0 0 145 145" fill="none" xmlns="http://www.w3.org/2000/svg">
<path d="M0 72.5C0 112.321 32.6788 145 72.5 145C112.321 145 145 112.321 145 72.5C145 35.5943 116.931 4.82337 81.1215 0.515479C76.3852 -0.0542986 72.5 3.86723 72.5 8.6377C72.5 13.4082 76.392 17.2044 81.1046 17.9448C107.483 22.0895 127.725 44.9763 127.725 72.5C127.725 102.95 102.95 127.725 72.5 127.725C42.05 127.725 17.2754 102.95 17.2754 72.5C17.2754 61.9606 20.2434 52.1011 25.3875 43.7134C27.8902 39.6326 27.4868 34.1788 23.8038 31.1207C20.1862 28.1169 14.7768 28.5583 12.1656 32.4686C4.48848 43.9648 0 57.7419 0 72.5Z" fill="url(#paint0_linear_2_32)"/>
<defs>
<linearGradient id="paint0_linear_2_32" x1="135" y1="26" x2="-19.5" y2="53.5" gradientUnits="userSpaceOnUse">
<stop stop-color="#4614E8"/>
<stop offset="1" stop-color="#BCA7FF"/>
</linearGradient>
</defs>
</svg>
