<svg width="231" height="161" viewBox="0 0 231 161" fill="none" xmlns="http://www.w3.org/2000/svg">
<g clip-path="url(#clip0_0_1122)">
<path d="M104.745 65.2542H0V0H104.745V65.2542Z" fill="white"/>
<path d="M104.745 65.2542H0V0H104.745V65.2542ZM0.478288 64.7779H104.267V0.476309H0.478288V64.7779Z" fill="#3F3D56"/>
<path d="M91.9508 155.634H32.1649V90.3794H91.9508V155.634Z" fill="white"/>
<path d="M91.9508 155.634H32.1649V90.3794H91.9508V155.634ZM32.6432 155.157H91.4725V90.8557H32.6432V155.157Z" fill="#3F3D56"/>
<path d="M83.8199 149.471H71.3844V149.973H83.8199V149.471Z" fill="#3F3D56"/>
<path d="M83.8199 150.977H71.3844V151.479H83.8199V150.977Z" fill="#3F3D56"/>
<path d="M83.8199 152.483H71.3844V152.985H83.8199V152.483Z" fill="#3F3D56"/>
<path d="M62.0577 102.049V107.289C65.1794 107.289 68.2309 108.211 70.8265 109.938C73.4221 111.665 75.4451 114.12 76.6397 116.992C77.8343 119.864 78.1469 123.024 77.5379 126.073C76.9289 129.122 75.4257 131.923 73.2183 134.121L76.9385 137.826C79.8817 134.895 81.886 131.161 82.698 127.095C83.51 123.03 83.0932 118.816 81.5004 114.987C79.9076 111.157 77.2102 107.884 73.7495 105.581C70.2887 103.278 66.2199 102.049 62.0577 102.049Z" fill="#E6E6E6"/>
<path d="M76.9387 137.826L73.2185 134.121C70.52 136.809 66.9348 138.432 63.1269 138.689C59.3191 138.946 55.5467 137.82 52.5086 135.519L49.3242 139.692C53.3757 142.759 58.4057 144.259 63.4829 143.916C68.56 143.573 73.3403 141.409 76.9387 137.826Z" fill="#575A89"/>
<path d="M46.2742 123.007C46.2742 120.943 46.6825 118.899 47.4757 116.992C48.2689 115.085 49.4315 113.352 50.8971 111.892C52.3627 110.433 54.1027 109.275 56.0176 108.485C57.9326 107.695 59.985 107.289 62.0577 107.289V102.049C57.6523 102.049 53.3579 103.426 49.7799 105.986C46.2019 108.545 43.5207 112.158 42.1143 116.316C40.7079 120.474 40.6471 124.966 41.9406 129.16C43.2341 133.354 45.8166 137.038 49.3241 139.692L52.5085 135.52C50.5696 134.055 48.9977 132.163 47.9161 129.992C46.8344 127.821 46.2725 125.43 46.2742 123.007Z" fill="#6C63FF"/>
<path d="M46.2742 123.007C46.2742 120.943 46.6825 118.899 47.4757 116.992C48.2689 115.085 49.4315 113.352 50.8971 111.892C52.3627 110.433 54.1027 109.275 56.0176 108.485C57.9326 107.695 59.985 107.289 62.0577 107.289V102.049C57.6523 102.049 53.3579 103.426 49.7799 105.986C46.2019 108.545 43.5207 112.158 42.1143 116.316C40.7079 120.474 40.6471 124.966 41.9406 129.16C43.2341 133.354 45.8166 137.038 49.3241 139.692L52.5085 135.52C50.5696 134.055 48.9977 132.163 47.9161 129.992C46.8344 127.821 46.2725 125.43 46.2742 123.007Z" fill="url(#paint0_linear_0_1122)"/>
<path d="M180.434 115.148H120.648V49.8936H180.434V115.148Z" fill="white"/>
<path d="M140.019 89.7842H129.257V106.931H140.019V89.7842Z" fill="#575A89"/>
<path d="M155.563 78.1147H144.801V106.931H155.563V78.1147Z" fill="#E6E6E6"/>
<path d="M171.107 64.54H160.346V106.931H171.107V64.54Z" fill="#6C63FF"/>
<path d="M171.107 64.54H160.346V106.931H171.107V64.54Z" fill="url(#paint1_linear_0_1122)"/>
<path d="M174.695 107.408H126.388V57.6333H126.866V106.931H174.695V107.408Z" fill="#3F3D56"/>
<path d="M230.725 160.75H179.398C179.391 160.75 179.384 160.747 179.38 160.743C179.375 160.738 179.373 160.732 179.373 160.726C179.373 160.721 179.375 160.715 179.38 160.71C179.384 160.706 179.391 160.703 179.398 160.703H230.725C230.732 160.703 230.739 160.706 230.743 160.71C230.748 160.715 230.75 160.721 230.75 160.726C230.75 160.732 230.748 160.738 230.743 160.743C230.739 160.747 230.732 160.75 230.725 160.75Z" fill="white" stroke="black" stroke-width="0.5"/>
<path d="M90.1983 51.6068H14.5465C14.4837 51.6068 14.4235 51.582 14.3791 51.5378C14.3347 51.4935 14.3098 51.4336 14.3098 51.371V15.2612C14.3098 15.1986 14.3347 15.1387 14.3791 15.0944C14.4235 15.0502 14.4837 15.0254 14.5465 15.0254C14.6093 15.0254 14.6695 15.0502 14.7139 15.0944C14.7583 15.1387 14.7833 15.1986 14.7833 15.2612V51.1353H90.1983C90.2295 51.1352 90.2603 51.1412 90.2892 51.153C90.318 51.1648 90.3442 51.1821 90.3662 51.204C90.3883 51.2259 90.4058 51.252 90.4178 51.2806C90.4297 51.3093 90.4359 51.34 90.4359 51.371C90.4359 51.4021 90.4297 51.4328 90.4178 51.4615C90.4058 51.4901 90.3883 51.5161 90.3662 51.538C90.3442 51.5599 90.318 51.5773 90.2892 51.5891C90.2603 51.6009 90.2295 51.6069 90.1983 51.6068Z" fill="#3F3D56"/>
<path d="M30.7101 49.0137H23.8293C23.643 49.0135 23.4643 48.9397 23.3326 48.8085C23.2008 48.6773 23.1267 48.4994 23.1265 48.3138V38.8678C23.1267 38.6823 23.2008 38.5044 23.3326 38.3732C23.4643 38.242 23.643 38.1682 23.8293 38.168H30.7101C30.8964 38.1682 31.075 38.242 31.2068 38.3732C31.3386 38.5044 31.4127 38.6823 31.4129 38.8678V48.3138C31.4127 48.4994 31.3386 48.6773 31.2068 48.8085C31.0751 48.9397 30.8964 49.0135 30.7101 49.0137Z" fill="url(#paint2_linear_0_1122)"/>
<path d="M43.2581 49.0137H36.3773C36.191 49.0135 36.0124 48.9397 35.8806 48.8085C35.7488 48.6773 35.6747 48.4994 35.6745 48.3138V29.9083C35.6747 29.7228 35.7488 29.5449 35.8806 29.4137C36.0124 29.2825 36.191 29.2087 36.3773 29.2085H43.2581C43.4445 29.2087 43.6231 29.2825 43.7548 29.4137C43.8866 29.5449 43.9607 29.7228 43.9609 29.9083V48.3138C43.9607 48.4994 43.8866 48.6773 43.7548 48.8085C43.6231 48.9397 43.4445 49.0135 43.2581 49.0137Z" fill="url(#paint3_linear_0_1122)"/>
<path d="M55.8062 49.0137H48.9253C48.739 49.0135 48.5604 48.9397 48.4286 48.8085C48.2969 48.6773 48.2228 48.4994 48.2225 48.3138V38.8678C48.2228 38.6823 48.2969 38.5044 48.4286 38.3732C48.5604 38.242 48.739 38.1682 48.9253 38.168H55.8062C55.9925 38.1682 56.1711 38.242 56.3029 38.3732C56.4346 38.5044 56.5088 38.6823 56.509 38.8678V48.3138C56.5088 48.4994 56.4346 48.6773 56.3029 48.8085C56.1711 48.9397 55.9925 49.0135 55.8062 49.0137Z" fill="url(#paint4_linear_0_1122)"/>
<path d="M68.3542 49.0134H61.4734C61.2913 49.0173 61.1151 48.9491 60.9834 48.8239C60.8516 48.6987 60.7751 48.5265 60.7706 48.3452V26.3397C60.7751 26.1584 60.8516 25.9862 60.9834 25.861C61.1151 25.7358 61.2913 25.6676 61.4734 25.6715H68.3542C68.5363 25.6676 68.7125 25.7358 68.8442 25.861C68.976 25.9862 69.0525 26.1584 69.057 26.3397V48.3452C69.0525 48.5265 68.976 48.6987 68.8442 48.8239C68.7125 48.9491 68.5363 49.0173 68.3542 49.0134Z" fill="url(#paint5_linear_0_1122)"/>
<path d="M80.9023 49.0134H74.0215C73.8351 49.0132 73.6565 48.9394 73.5248 48.8082C73.393 48.677 73.3189 48.4991 73.3187 48.3136V20.0055C73.3189 19.82 73.393 19.6421 73.5248 19.5109C73.6565 19.3797 73.8351 19.3059 74.0215 19.3057H80.9023C81.0886 19.3059 81.2673 19.3797 81.399 19.5109C81.5308 19.6421 81.6049 19.82 81.6051 20.0055V48.3136C81.6049 48.4991 81.5308 48.677 81.399 48.8082C81.2673 48.9394 81.0886 49.0132 80.9023 49.0134Z" fill="url(#paint6_linear_0_1122)"/>
<path d="M27.2696 35.3386C28.0541 35.3386 28.6901 34.7052 28.6901 33.9239C28.6901 33.1426 28.0541 32.5093 27.2696 32.5093C26.4851 32.5093 25.8491 33.1426 25.8491 33.9239C25.8491 34.7052 26.4851 35.3386 27.2696 35.3386Z" fill="#3F3D56"/>
<path d="M39.8177 26.1433C40.6022 26.1433 41.2382 25.5099 41.2382 24.7286C41.2382 23.9473 40.6022 23.314 39.8177 23.314C39.0331 23.314 38.3972 23.9473 38.3972 24.7286C38.3972 25.5099 39.0331 26.1433 39.8177 26.1433Z" fill="#3F3D56"/>
<path d="M52.3658 35.3386C53.1503 35.3386 53.7863 34.7052 53.7863 33.9239C53.7863 33.1426 53.1503 32.5093 52.3658 32.5093C51.5812 32.5093 50.9453 33.1426 50.9453 33.9239C50.9453 34.7052 51.5812 35.3386 52.3658 35.3386Z" fill="#3F3D56"/>
<path d="M64.9137 21.6638C65.6982 21.6638 66.3342 21.0304 66.3342 20.2491C66.3342 19.4678 65.6982 18.8345 64.9137 18.8345C64.1292 18.8345 63.4932 19.4678 63.4932 20.2491C63.4932 21.0304 64.1292 21.6638 64.9137 21.6638Z" fill="#3F3D56"/>
<path d="M77.4618 16.4763C78.2463 16.4763 78.8823 15.8429 78.8823 15.0616C78.8823 14.2803 78.2463 13.647 77.4618 13.647C76.6773 13.647 76.0413 14.2803 76.0413 15.0616C76.0413 15.8429 76.6773 16.4763 77.4618 16.4763Z" fill="#3F3D56"/>
<path d="M52.3955 34.2408L39.8177 24.8588L27.4115 34.1126L27.1277 33.7351L39.8177 24.2694L52.3357 33.6069L64.7754 20.0503L64.8254 20.0301L77.3732 14.9951L77.5503 15.4327L65.0521 20.4475L52.3955 34.2408Z" fill="#3F3D56"/>
<path d="M176.372 89.6279L176.344 89.6108C175.875 89.3225 175.524 88.875 175.357 88.3497C175.188 87.8143 175.22 87.2353 175.449 86.7223C175.678 86.2093 176.087 85.7979 176.599 85.5661C177.111 85.3344 177.691 85.2984 178.228 85.465L178.269 85.4777L178.312 85.476L186.334 85.1551L188.458 88.6189L179.926 88.3351L179.748 88.3292L179.684 88.4952C179.565 88.8063 179.378 89.0875 179.138 89.3188C178.897 89.5501 178.609 89.726 178.293 89.834C177.978 89.942 177.642 89.9795 177.31 89.9439C176.978 89.9083 176.658 89.8004 176.372 89.6279Z" fill="white" stroke="black" stroke-width="0.5"/>
<path d="M226.779 109.145L226.778 109.146C226.41 109.571 225.899 109.846 225.342 109.92C224.784 109.993 224.219 109.86 223.754 109.545C223.288 109.23 222.954 108.755 222.816 108.211C222.677 107.667 222.743 107.09 223.001 106.592L223.021 106.553L223.027 106.511L224.115 98.5639L227.901 97.0808L226.127 105.423L226.09 105.598L226.243 105.689C226.529 105.862 226.773 106.095 226.959 106.372C227.145 106.649 227.267 106.963 227.319 107.292C227.37 107.622 227.348 107.958 227.255 108.278C227.162 108.599 226.999 108.894 226.779 109.145Z" fill="white" stroke="black" stroke-width="0.5"/>
<path d="M205.644 143.505L205.643 154.906L203.026 154.905L201.619 143.505L205.644 143.505Z" fill="white" stroke="black" stroke-width="0.5"/>
<path d="M196.975 157.896C196.99 157.463 197.083 157.036 197.249 156.634C197.431 156.195 197.698 155.796 198.035 155.459C198.372 155.123 198.771 154.856 199.211 154.674C199.651 154.492 200.123 154.398 200.599 154.398H200.599H200.599H200.599L206.431 154.399L206.431 157.897L196.975 157.896Z" fill="white" stroke="black" stroke-width="0.5"/>
<path d="M220.757 143.505L220.757 154.906L218.139 154.905L216.732 143.505L220.757 143.505Z" fill="white" stroke="black" stroke-width="0.5"/>
<path d="M212.089 157.896C212.104 157.463 212.196 157.036 212.363 156.634C212.545 156.195 212.812 155.796 213.149 155.459C213.485 155.123 213.885 154.856 214.325 154.674C214.765 154.492 215.236 154.398 215.712 154.398H215.712H215.713H215.713L221.544 154.399L221.544 157.897L212.089 157.896Z" fill="white" stroke="black" stroke-width="0.5"/>
<path d="M202.232 107.417C209.782 104.706 215.994 104.925 221.257 108.03L221.993 147.2L221.993 147.2C221.995 147.318 221.974 147.434 221.93 147.543C221.887 147.652 221.822 147.751 221.74 147.835C221.658 147.919 221.56 147.985 221.451 148.031C221.343 148.076 221.227 148.1 221.109 148.1H217.423C217.219 148.099 217.02 148.028 216.862 147.898C216.704 147.768 216.596 147.587 216.556 147.387C216.556 147.387 216.556 147.387 216.556 147.387L211.535 121.867C211.506 121.72 211.426 121.589 211.308 121.496C211.191 121.403 211.045 121.355 210.895 121.361C210.746 121.366 210.604 121.425 210.494 121.526C210.384 121.627 210.313 121.764 210.295 121.912L202.232 107.417ZM202.232 107.417L201.006 147.608C201.006 147.608 201.006 147.608 201.006 147.608C200.999 147.84 201.085 148.066 201.243 148.236C201.402 148.406 201.621 148.507 201.853 148.517M202.232 107.417L201.853 148.517M201.853 148.517C201.854 148.517 201.854 148.517 201.854 148.517L206.223 148.692C206.223 148.692 206.224 148.692 206.224 148.692C206.236 148.692 206.248 148.692 206.259 148.692C206.475 148.691 206.683 148.612 206.844 148.469C207.006 148.326 207.11 148.129 207.137 147.916C207.137 147.915 207.137 147.915 207.137 147.915L210.295 121.913L201.853 148.517Z" fill="white" stroke="black" stroke-width="0.5"/>
<path d="M216.404 65.6634C216.404 68.9388 213.747 71.5944 210.468 71.5944C207.189 71.5944 204.531 68.9388 204.531 65.6634C204.531 62.388 207.189 59.7324 210.468 59.7324C213.747 59.7324 216.404 62.388 216.404 65.6634Z" fill="white" stroke="black" stroke-width="0.5"/>
<path d="M181.621 88.3067L181.621 88.3065C181.568 88.135 181.567 87.9513 181.621 87.7798L182.262 85.7285C182.262 85.7285 182.262 85.7284 182.262 85.7283C182.316 85.5553 182.423 85.4031 182.567 85.2924C182.711 85.1817 182.885 85.1177 183.067 85.1093C183.067 85.1093 183.067 85.1093 183.067 85.1093L191.183 84.7508L191.237 84.7484L191.286 84.7236L204.436 77.9891C204.856 77.8577 205.298 77.8091 205.736 77.8459C206.182 77.8833 206.616 78.0081 207.013 78.2132C207.41 78.4182 207.763 78.6994 208.051 79.0408C208.34 79.3822 208.558 79.777 208.693 80.2026C208.829 80.6282 208.879 81.0763 208.841 81.5213C208.803 81.9663 208.677 82.3995 208.471 82.796C208.266 83.1925 207.984 83.5446 207.642 83.8322C207.3 84.1198 206.904 84.3372 206.478 84.472L206.452 84.4803L206.428 84.4941L198.358 89.1706L198.358 89.1706C195.961 90.56 193.141 91.0323 190.422 90.4996L190.421 90.4996L182.295 88.9088C182.295 88.9088 182.295 88.9088 182.295 88.9088C182.294 88.9088 182.294 88.9088 182.294 88.9088C182.173 88.8849 182.057 88.8356 181.956 88.7642L181.812 88.9687L181.956 88.7642C181.854 88.6928 181.769 88.6009 181.705 88.4944L181.705 88.4943C181.67 88.4353 181.642 88.3723 181.621 88.3067Z" fill="white" stroke="black" stroke-width="0.5"/>
<path d="M226.619 103.38L226.618 103.38C226.449 103.441 226.265 103.449 226.091 103.403C226.091 103.403 226.091 103.403 226.091 103.403L224.013 102.85C224.013 102.85 224.013 102.85 224.013 102.85C223.837 102.803 223.68 102.703 223.564 102.565C223.447 102.426 223.375 102.254 223.359 102.073C223.359 102.073 223.359 102.073 223.359 102.073L222.655 93.9873L222.65 93.9329L222.623 93.8855L215.328 81.0468C215.179 80.6331 215.112 80.1944 215.13 79.7549C215.148 79.3087 215.255 78.8705 215.443 78.4654C215.631 78.0603 215.897 77.6961 216.226 77.3938C216.555 77.0915 216.941 76.857 217.361 76.7037C217.781 76.5503 218.227 76.4811 218.673 76.5001C219.12 76.5191 219.559 76.6259 219.964 76.8144C220.369 77.0028 220.733 77.2692 221.035 77.5984C221.338 77.9275 221.572 78.3129 221.725 78.7326L221.734 78.7584L221.749 78.7816L226.77 86.6376L226.77 86.6377C228.261 88.9707 228.853 91.7656 228.437 94.5023L228.437 94.5023L227.192 102.682C227.173 102.805 227.129 102.922 227.062 103.026C226.995 103.131 226.907 103.22 226.803 103.288L226.803 103.288C226.745 103.326 226.683 103.357 226.619 103.38Z" fill="white" stroke="black" stroke-width="0.5"/>
<path d="M203.885 76.8088L203.885 76.8098C202.835 77.948 202.055 79.307 201.602 80.7865C201.148 82.266 201.032 83.8284 201.263 85.3585L201.263 85.3589L202.726 95.1668L202.73 95.1951L202.727 95.2237L201.562 109.664C201.552 109.786 201.568 109.908 201.607 110.023C201.647 110.138 201.71 110.244 201.793 110.333C201.876 110.423 201.976 110.494 202.088 110.543C202.199 110.592 202.32 110.618 202.442 110.618L203.885 76.8088ZM203.885 76.8088C204.923 75.6722 206.202 74.7828 207.63 74.2062C209.057 73.6296 210.596 73.3806 212.133 73.4774L212.133 73.4774M203.885 76.8088L212.133 73.4774M212.133 73.4774C212.235 73.4838 212.337 73.4909 212.438 73.4988L212.447 73.4995M212.133 73.4774L212.447 73.4995M212.447 73.4995C213.9 73.6156 215.312 74.0396 216.588 74.7434C217.867 75.4487 218.981 76.4186 219.854 77.5884L219.854 77.5886C220.743 78.7752 221.368 80.1375 221.687 81.5845C222.006 83.0316 222.012 84.5301 221.705 85.9798L221.705 85.9799C220.497 91.6959 220.803 97.6281 222.593 103.19L222.593 103.19L224.252 108.339L224.252 108.339C224.294 108.467 224.305 108.603 224.286 108.737C224.266 108.871 224.216 108.998 224.139 109.109C224.063 109.22 223.962 109.313 223.844 109.379C223.726 109.445 223.594 109.483 223.459 109.49L223.459 109.49L215.127 109.938L213.032 106.323L212.566 105.518V106.448V110.075L202.49 110.616L202.488 110.616C202.474 110.617 202.458 110.618 202.442 110.618L212.447 73.4995Z" fill="white" stroke="black" stroke-width="0.5"/>
<path d="M205.449 63.2646C205.274 63.2747 205.094 63.293 204.921 63.3107C204.867 63.3162 204.813 63.3217 204.761 63.3268C204.535 63.3489 204.319 63.3656 204.112 63.3615C203.702 63.3535 203.342 63.265 203.033 62.9881L202.866 63.1744L203.033 62.9881C202.811 62.7896 202.646 62.3983 202.574 61.9327C202.504 61.4734 202.533 61.0026 202.642 60.6891C202.723 60.4547 202.924 60.2242 203.236 60.0017C203.545 59.7812 203.94 59.585 204.369 59.4109C205.046 59.1365 205.778 58.9289 206.353 58.7656C206.51 58.7212 206.655 58.68 206.784 58.6417C208.208 58.2306 209.707 58.1417 211.17 58.3816C212.633 58.6215 214.025 59.1841 215.243 60.0284C215.974 60.5431 216.621 61.1666 216.912 61.9505C217.204 62.7355 217.047 63.686 216.44 64.1639L216.225 64.3332L216.413 64.5321C216.938 65.088 217.308 65.7722 217.486 66.516C217.663 67.2593 217.642 68.0362 217.425 68.7688C217.27 69.2652 216.809 69.7836 216.243 70.2544C215.685 70.7184 215.063 71.106 214.643 71.3476C214.537 71.4083 214.322 71.4777 214.033 71.5333C213.751 71.5875 213.423 71.6242 213.108 71.6317C212.79 71.6393 212.501 71.6168 212.289 71.5609C212.054 71.499 212.015 71.4249 212.012 71.4106L212.009 71.3994C212.009 71.3992 212.009 71.3989 212.009 71.3987C211.961 71.198 211.955 70.9859 211.968 70.7558C211.974 70.6407 211.985 70.5242 211.996 70.4032C211.997 70.3926 211.998 70.382 211.999 70.3713C212.01 70.2615 212.021 70.1477 212.028 70.0341C212.061 69.5415 212.022 68.9185 211.619 68.4835C211.242 68.0763 210.727 67.9968 210.255 67.9805C210.102 67.9752 209.94 67.9765 209.783 67.9778C209.701 67.9785 209.62 67.9792 209.544 67.9789C209.313 67.9779 209.099 67.9686 208.902 67.9319C208.445 67.8289 208.041 67.5636 207.765 67.1852C207.489 66.8069 207.361 66.3414 207.403 65.8753C207.414 65.7876 207.432 65.6974 207.453 65.602L207.453 65.6012C207.516 65.3098 207.511 65.0077 207.438 64.7186C207.366 64.4294 207.226 64.1611 207.032 63.9347C206.838 63.7083 206.594 63.53 206.319 63.4138C206.045 63.2976 205.747 63.2465 205.449 63.2646ZM205.449 63.2646C205.449 63.2646 205.449 63.2646 205.45 63.2646L205.464 63.5142L205.449 63.2647C205.449 63.2647 205.449 63.2646 205.449 63.2646Z" fill="#7247FF" stroke="black" stroke-width="0.5"/>
</g>
<defs>
<linearGradient id="paint0_linear_0_1122" x1="40.8995" y1="103.894" x2="62.8343" y2="103.98" gradientUnits="userSpaceOnUse">
<stop stop-color="#4614E8"/>
<stop offset="1" stop-color="#BCA7FF"/>
</linearGradient>
<linearGradient id="paint1_linear_0_1122" x1="162.355" y1="64.5092" x2="179.678" y2="68.5037" gradientUnits="userSpaceOnUse">
<stop stop-color="#4614E8"/>
<stop offset="1" stop-color="#BCA7FF"/>
</linearGradient>
<linearGradient id="paint2_linear_0_1122" x1="24.6737" y1="38.1601" x2="34.1548" y2="44.7401" gradientUnits="userSpaceOnUse">
<stop stop-color="#4614E8"/>
<stop offset="1" stop-color="#BCA7FF"/>
</linearGradient>
<linearGradient id="paint3_linear_0_1122" x1="37.2217" y1="29.1941" x2="49.4965" y2="33.8592" gradientUnits="userSpaceOnUse">
<stop stop-color="#4614E8"/>
<stop offset="1" stop-color="#BCA7FF"/>
</linearGradient>
<linearGradient id="paint4_linear_0_1122" x1="49.7697" y1="38.1601" x2="59.2509" y2="44.7401" gradientUnits="userSpaceOnUse">
<stop stop-color="#4614E8"/>
<stop offset="1" stop-color="#BCA7FF"/>
</linearGradient>
<linearGradient id="paint5_linear_0_1122" x1="62.3178" y1="25.6544" x2="75.0423" y2="29.7577" gradientUnits="userSpaceOnUse">
<stop stop-color="#4614E8"/>
<stop offset="1" stop-color="#BCA7FF"/>
</linearGradient>
<linearGradient id="paint6_linear_0_1122" x1="74.8659" y1="19.2841" x2="88.0662" y2="22.6286" gradientUnits="userSpaceOnUse">
<stop stop-color="#4614E8"/>
<stop offset="1" stop-color="#BCA7FF"/>
</linearGradient>
<clipPath id="clip0_0_1122">
<rect width="231" height="161" fill="white"/>
</clipPath>
</defs>
</svg>
