<svg width="186" height="127" viewBox="0 0 186 127" fill="none" xmlns="http://www.w3.org/2000/svg">
<g clip-path="url(#clip0_0_972)">
<path d="M182.674 115.49C181.401 119.901 177.686 122.988 173.81 125.611C173.269 125.977 172.727 126.335 172.186 126.685C172.182 126.686 172.178 126.69 172.174 126.691C172.148 126.708 172.122 126.725 172.098 126.741C171.986 126.813 171.874 126.885 171.764 126.957L171.824 126.984C171.824 126.984 171.884 127.016 171.819 126.989C171.799 126.981 171.779 126.974 171.76 126.965C169.508 126.058 167.216 125.084 165.491 123.384C163.7 121.619 162.654 118.851 163.624 116.532C163.751 116.228 163.912 115.94 164.103 115.672C164.182 115.559 164.267 115.452 164.355 115.346C164.89 114.694 165.588 114.196 166.38 113.904C167.171 113.611 168.026 113.534 168.856 113.681C169.687 113.828 170.464 114.193 171.106 114.739C171.749 115.285 172.234 115.992 172.513 116.788C172.797 114.139 170.611 111.92 168.507 110.283C166.402 108.647 164.011 106.865 163.604 104.231C163.376 102.765 163.887 101.345 164.816 100.204C164.845 100.17 164.873 100.135 164.903 100.101C166.034 98.7735 167.625 97.9207 169.358 97.7135C172.586 97.3784 175.721 99.0852 178.065 101.327C181.839 104.934 184.121 110.475 182.674 115.49Z" fill="#F2F2F2"/>
<path d="M176.608 109.721C177.227 110.684 177.703 111.732 178.019 112.832C178.287 113.815 178.406 114.833 178.373 115.851C178.286 117.947 177.698 119.991 176.656 121.812C175.871 123.193 174.915 124.47 173.81 125.611C173.269 125.978 172.727 126.336 172.186 126.685C172.182 126.687 172.178 126.69 172.174 126.692C172.148 126.708 172.122 126.725 172.098 126.742C171.986 126.814 171.874 126.886 171.764 126.957C171.764 126.957 171.884 127.016 171.819 126.99C171.799 126.981 171.779 126.974 171.76 126.966C171.961 125.313 171.764 123.636 171.183 122.075C170.602 120.514 169.656 119.114 168.422 117.994C167.186 116.891 165.706 116.095 164.104 115.672C164.182 115.56 164.267 115.452 164.355 115.347C164.974 115.52 165.576 115.748 166.155 116.027C168.224 117.02 169.918 118.652 170.987 120.681C171.946 122.524 172.358 124.602 172.176 126.671C172.269 126.587 172.362 126.502 172.451 126.417C174.162 124.823 175.682 122.994 176.711 120.883C177.603 119.095 178.042 117.115 177.988 115.118C177.904 112.94 177.035 110.923 175.778 109.167C174.4 107.293 172.772 105.617 170.939 104.184C169.092 102.706 167.071 101.46 164.921 100.472C164.872 100.45 164.834 100.409 164.815 100.36C164.795 100.31 164.796 100.254 164.816 100.205C164.83 100.16 164.862 100.123 164.903 100.102C164.924 100.093 164.948 100.089 164.971 100.089C164.994 100.09 165.017 100.097 165.037 100.108C165.303 100.23 165.566 100.354 165.828 100.483C168.006 101.558 170.042 102.9 171.889 104.477C173.673 105.997 175.353 107.733 176.608 109.721Z" fill="white"/>
<path d="M155.094 2.86066e-09H2.19641C1.61403 0.000529774 1.05567 0.231903 0.643873 0.643332C0.232079 1.05476 0.000511557 1.61263 0 2.19447V105.707C0.000510891 106.289 0.232079 106.847 0.643873 107.258C1.05567 107.669 1.61403 107.901 2.19641 107.901H155.094C155.411 107.901 155.725 107.832 156.013 107.7C156.302 107.567 156.558 107.373 156.764 107.131C156.781 107.112 156.797 107.092 156.812 107.071C156.943 106.911 157.049 106.732 157.126 106.54C157.237 106.276 157.293 105.993 157.293 105.707V2.19448C157.292 1.61223 157.06 1.05404 156.648 0.642564C156.235 0.231086 155.676 -2.96894e-05 155.094 2.86066e-09ZM156.665 105.707C156.666 106.013 156.575 106.312 156.406 106.568C156.255 106.792 156.051 106.975 155.811 107.101C155.59 107.216 155.343 107.275 155.094 107.275H2.19641C1.78036 107.274 1.38151 107.109 1.08732 106.815C0.793134 106.521 0.627639 106.123 0.627134 105.707V2.19448C0.627639 1.77882 0.793134 1.38033 1.08732 1.08641C1.38151 0.792491 1.78036 0.627144 2.19641 0.62664H155.094C155.51 0.626586 155.909 0.791669 156.204 1.08563C156.499 1.3796 156.665 1.77841 156.665 2.19448V105.707Z" fill="#3F3D56"/>
<path d="M156.978 8.79541H0.31308V9.42275H156.978V8.79541Z" fill="#3F3D56"/>
<path d="M7.28394 4.70526C7.28394 5.60638 6.5527 6.33728 5.65019 6.33728C4.74768 6.33728 4.01645 5.60638 4.01645 4.70526C4.01645 3.80414 4.74768 3.07324 5.65019 3.07324C6.5527 3.07324 7.28394 3.80414 7.28394 4.70526Z" stroke="black" stroke-width="0.5"/>
<path d="M12.6999 4.70526C12.6999 5.60638 11.9686 6.33728 11.0661 6.33728C10.1636 6.33728 9.43237 5.60638 9.43237 4.70526C9.43237 3.80414 10.1636 3.07324 11.0661 3.07324C11.9686 3.07324 12.6999 3.80414 12.6999 4.70526Z" stroke="black" stroke-width="0.5"/>
<path d="M18.1156 4.70526C18.1156 5.60638 17.3843 6.33728 16.4818 6.33728C15.5793 6.33728 14.8481 5.60638 14.8481 4.70526C14.8481 3.80414 15.5793 3.07324 16.4818 3.07324C17.3843 3.07324 18.1156 3.80414 18.1156 4.70526Z" stroke="black" stroke-width="0.5"/>
<path d="M101.464 44.1311C100.459 44.1311 99.4768 43.8333 98.6411 43.2755C97.8055 42.7176 97.1541 41.9247 96.7695 40.997C96.3849 40.0693 96.2843 39.0484 96.4803 38.0636C96.6764 37.0788 97.1604 36.1741 97.8711 35.4641C98.5818 34.754 99.4872 34.2705 100.473 34.0746C101.459 33.8787 102.481 33.9793 103.409 34.3635C104.338 34.7478 105.131 35.3985 105.69 36.2334C106.248 37.0683 106.546 38.0499 106.546 39.0541C106.545 40.4001 106.009 41.6906 105.056 42.6424C104.103 43.5942 102.812 44.1296 101.464 44.1311ZM101.464 34.4582C100.555 34.4582 99.6652 34.7278 98.9087 35.2328C98.1522 35.7378 97.5626 36.4555 97.2144 37.2953C96.8663 38.1351 96.7752 39.0592 96.9527 39.9507C97.1302 40.8422 97.5683 41.6611 98.2116 42.3039C98.855 42.9466 99.6746 43.3843 100.567 43.5616C101.459 43.739 102.384 43.648 103.225 43.3001C104.065 42.9523 104.784 42.3632 105.289 41.6074C105.795 40.8516 106.064 39.9631 106.064 39.0541C106.063 37.8356 105.578 36.6674 104.716 35.8058C103.853 34.9442 102.684 34.4596 101.464 34.4582Z" fill="#6C63FF"/>
<path d="M100.985 40.899C100.876 40.8992 100.77 40.864 100.683 40.7987L100.677 40.7947L99.5395 39.9252C99.4331 39.8437 99.3634 39.7233 99.3458 39.5905C99.3283 39.4577 99.3643 39.3233 99.4458 39.217C99.5274 39.1107 99.6479 39.0411 99.7809 39.0236C99.9138 39.0061 100.048 39.042 100.155 39.1235L100.892 39.6881L102.633 37.4184C102.673 37.3658 102.724 37.3216 102.781 37.2885C102.839 37.2553 102.902 37.2337 102.968 37.2251C103.034 37.2164 103.1 37.2207 103.165 37.2379C103.229 37.255 103.289 37.2846 103.341 37.3249L103.342 37.325L103.331 37.34L103.342 37.325C103.448 37.4066 103.518 37.527 103.535 37.6597C103.553 37.7925 103.517 37.9267 103.435 38.033L101.387 40.7014C101.34 40.7629 101.279 40.8127 101.209 40.8468C101.139 40.881 101.063 40.8987 100.985 40.8984L100.985 40.899Z" fill="#6C63FF"/>
<path d="M116.005 44.1311C115 44.1311 114.017 43.8333 113.181 43.2755C112.346 42.7176 111.694 41.9247 111.31 40.997C110.925 40.0693 110.825 39.0484 111.021 38.0636C111.217 37.0788 111.701 36.1741 112.411 35.4641C113.122 34.754 114.027 34.2705 115.013 34.0746C115.999 33.8787 117.021 33.9793 117.949 34.3635C118.878 34.7478 119.672 35.3985 120.23 36.2334C120.788 37.0683 121.086 38.0499 121.086 39.0541C121.085 40.4001 120.549 41.6906 119.596 42.6424C118.644 43.5942 117.352 44.1296 116.005 44.1311ZM116.005 34.4582C115.095 34.4582 114.205 34.7278 113.449 35.2328C112.692 35.7378 112.103 36.4555 111.755 37.2953C111.407 38.1351 111.315 39.0592 111.493 39.9507C111.67 40.8422 112.109 41.6611 112.752 42.3039C113.395 42.9466 114.215 43.3843 115.107 43.5616C116 43.739 116.924 43.648 117.765 43.3001C118.606 42.9523 119.324 42.3632 119.829 41.6074C120.335 40.8516 120.605 39.9631 120.605 39.0541C120.603 37.8356 120.118 36.6674 119.256 35.8058C118.393 34.9442 117.224 34.4596 116.005 34.4582Z" fill="#E6E6E6"/>
<path d="M117.834 40.811C117.773 40.8718 117.69 40.906 117.604 40.906C117.518 40.906 117.435 40.8718 117.374 40.811L116.154 39.5927C116.127 39.5656 116.09 39.5504 116.052 39.5503C116.014 39.5503 115.977 39.5656 115.949 39.5927L114.73 40.811C114.669 40.8719 114.586 40.9062 114.5 40.9062C114.414 40.9062 114.331 40.8719 114.27 40.811C114.209 40.75 114.175 40.6674 114.175 40.5812C114.175 40.495 114.209 40.4123 114.27 40.3513L115.489 39.1331C115.517 39.1059 115.532 39.0691 115.532 39.0307C115.532 38.9923 115.517 38.9555 115.489 38.9283L114.27 37.71C114.209 37.649 114.175 37.5664 114.175 37.4802C114.175 37.394 114.209 37.3114 114.27 37.2504C114.331 37.1895 114.414 37.1553 114.5 37.1553C114.586 37.1553 114.669 37.1895 114.73 37.2504L115.949 38.4688C115.977 38.4959 116.013 38.5111 116.052 38.5111C116.09 38.5111 116.127 38.4959 116.154 38.4688L117.374 37.2505C117.435 37.1895 117.517 37.1553 117.604 37.1553C117.69 37.1553 117.773 37.1895 117.834 37.2505C117.895 37.3114 117.929 37.3941 117.929 37.4803C117.929 37.5665 117.895 37.6492 117.834 37.7101L116.614 38.9284C116.587 38.9556 116.572 38.9924 116.572 39.0308C116.572 39.0692 116.587 39.106 116.614 39.1332L117.834 40.3515C117.895 40.4124 117.929 40.4951 117.929 40.5812C117.929 40.6674 117.895 40.75 117.834 40.811Z" fill="#E6E6E6"/>
<path d="M101.464 60.2497C100.459 60.2497 99.4768 59.952 98.6411 59.3941C97.8055 58.8362 97.1541 58.0433 96.7695 57.1156C96.3849 56.1879 96.2843 55.1671 96.4803 54.1822C96.6764 53.1974 97.1604 52.2928 97.8711 51.5827C98.5818 50.8727 99.4872 50.3892 100.473 50.1933C101.459 49.9974 102.481 50.0979 103.409 50.4822C104.338 50.8664 105.131 51.5172 105.69 52.3521C106.248 53.187 106.546 54.1686 106.546 55.1727C106.545 56.5188 106.009 57.8092 105.056 58.761C104.103 59.7128 102.812 60.2482 101.464 60.2497ZM101.464 50.5769C100.555 50.5769 99.6652 50.8464 98.9087 51.3514C98.1522 51.8564 97.5626 52.5742 97.2144 53.414C96.8663 54.2537 96.7752 55.1778 96.9527 56.0693C97.1302 56.9608 97.5683 57.7797 98.2116 58.4225C98.855 59.0652 99.6746 59.5029 100.567 59.6803C101.459 59.8576 102.384 59.7666 103.225 59.4187C104.065 59.0709 104.784 58.4818 105.289 57.726C105.795 56.9703 106.064 56.0817 106.064 55.1727C106.063 53.9542 105.578 52.7861 104.716 51.9245C103.853 51.0629 102.684 50.5782 101.464 50.5769Z" fill="#6C63FF"/>
<path d="M100.985 57.0177C100.876 57.0179 100.77 56.9827 100.683 56.9174L100.677 56.9133L99.5395 56.0439C99.4331 55.9624 99.3634 55.842 99.3458 55.7092C99.3283 55.5763 99.3643 55.442 99.4458 55.3357C99.5274 55.2294 99.6479 55.1598 99.7809 55.1423C99.9138 55.1247 100.048 55.1606 100.155 55.2421L100.892 55.8067L102.633 53.5371C102.673 53.4844 102.724 53.4403 102.781 53.4071C102.839 53.3739 102.902 53.3524 102.968 53.3437C103.034 53.335 103.1 53.3394 103.165 53.3565C103.229 53.3736 103.289 53.4032 103.341 53.4436L103.342 53.4437L103.331 53.4587L103.342 53.4437C103.448 53.5253 103.518 53.6456 103.535 53.7784C103.553 53.9111 103.517 54.0454 103.435 54.1517L101.387 56.8201C101.34 56.8816 101.279 56.9313 101.209 56.9655C101.139 56.9997 101.063 57.0173 100.985 57.0171L100.985 57.0177Z" fill="#6C63FF"/>
<path d="M116.005 60.2497C115 60.2497 114.017 59.952 113.181 59.3941C112.346 58.8362 111.694 58.0433 111.31 57.1156C110.925 56.1879 110.825 55.1671 111.021 54.1822C111.217 53.1974 111.701 52.2928 112.411 51.5827C113.122 50.8727 114.027 50.3892 115.013 50.1933C115.999 49.9974 117.021 50.0979 117.949 50.4822C118.878 50.8664 119.672 51.5172 120.23 52.3521C120.788 53.187 121.086 54.1686 121.086 55.1727C121.085 56.5188 120.549 57.8093 119.596 58.7611C118.644 59.7128 117.352 60.2482 116.005 60.2497ZM116.005 50.5769C115.095 50.5769 114.205 50.8464 113.449 51.3514C112.692 51.8564 112.103 52.5742 111.755 53.414C111.407 54.2537 111.315 55.1778 111.493 56.0693C111.67 56.9608 112.109 57.7797 112.752 58.4225C113.395 59.0652 114.215 59.5029 115.107 59.6803C116 59.8576 116.924 59.7666 117.765 59.4187C118.606 59.0709 119.324 58.4818 119.829 57.726C120.335 56.9703 120.605 56.0817 120.605 55.1727C120.603 53.9542 120.118 52.7861 119.256 51.9245C118.393 51.0629 117.224 50.5782 116.005 50.5769Z" fill="#E6E6E6"/>
<path d="M117.834 56.9292C117.773 56.99 117.69 57.0242 117.604 57.0242C117.517 57.0242 117.435 56.99 117.374 56.9292L116.154 55.7109C116.127 55.6838 116.09 55.6685 116.052 55.6685C116.013 55.6685 115.977 55.6837 115.949 55.7109L114.73 56.9291C114.669 56.9901 114.586 57.0243 114.5 57.0243C114.414 57.0243 114.331 56.9901 114.27 56.9291C114.209 56.8682 114.175 56.7855 114.175 56.6993C114.175 56.6131 114.209 56.5305 114.27 56.4695L115.489 55.2512C115.516 55.2241 115.532 55.1873 115.532 55.1489C115.532 55.1105 115.516 55.0737 115.489 55.0465L114.27 53.8281C114.209 53.7672 114.175 53.6846 114.175 53.5984C114.175 53.5122 114.209 53.4295 114.27 53.3686C114.331 53.3077 114.414 53.2734 114.5 53.2734C114.586 53.2734 114.669 53.3077 114.73 53.3686L115.949 54.587C115.976 54.6141 116.013 54.6293 116.052 54.6293C116.09 54.6293 116.127 54.6141 116.154 54.5869L117.374 53.3686C117.435 53.3077 117.517 53.2735 117.604 53.2735C117.69 53.2735 117.773 53.3077 117.834 53.3686C117.895 53.4296 117.929 53.5123 117.929 53.5985C117.929 53.6847 117.895 53.7673 117.834 53.8283L116.614 55.0465C116.587 55.0737 116.572 55.1106 116.572 55.149C116.572 55.1873 116.587 55.2242 116.614 55.2514L117.834 56.4696C117.895 56.5306 117.929 56.6133 117.929 56.6994C117.929 56.7855 117.895 56.8682 117.834 56.9292Z" fill="#E6E6E6"/>
<path d="M101.464 76.3684C100.459 76.3684 99.4768 76.0706 98.6411 75.5128C97.8055 74.9549 97.1541 74.162 96.7695 73.2343C96.3849 72.3066 96.2843 71.2857 96.4803 70.3009C96.6764 69.3161 97.1604 68.4114 97.8711 67.7014C98.5818 66.9914 99.4872 66.5078 100.473 66.3119C101.459 66.116 102.481 66.2166 103.409 66.6008C104.338 66.9851 105.131 67.6358 105.69 68.4707C106.248 69.3057 106.546 70.2872 106.546 71.2914C106.545 72.6374 106.009 73.9279 105.056 74.8797C104.103 75.8315 102.812 76.3669 101.464 76.3684ZM101.464 66.6955C100.555 66.6955 99.6652 66.9651 98.9087 67.4701C98.1522 67.9751 97.5626 68.6928 97.2144 69.5326C96.8663 70.3724 96.7752 71.2965 96.9527 72.188C97.1302 73.0795 97.5683 73.8984 98.2116 74.5412C98.855 75.1839 99.6746 75.6216 100.567 75.7989C101.459 75.9763 102.384 75.8853 103.225 75.5374C104.065 75.1896 104.784 74.6005 105.289 73.8447C105.795 73.0889 106.064 72.2004 106.064 71.2914C106.063 70.0729 105.578 68.9047 104.716 68.0431C103.853 67.1815 102.684 66.6969 101.464 66.6955Z" fill="#E6E6E6"/>
<path d="M100.985 73.1364C100.876 73.1365 100.77 73.1013 100.683 73.0361L100.677 73.032L99.5395 72.1625C99.4331 72.081 99.3634 71.9606 99.3458 71.8278C99.3283 71.695 99.3643 71.5607 99.4458 71.4543C99.5274 71.348 99.6479 71.2785 99.7809 71.2609C99.9138 71.2434 100.048 71.2793 100.155 71.3608L100.892 71.9254L102.633 69.6557C102.673 69.6031 102.724 69.5589 102.781 69.5258C102.839 69.4926 102.902 69.471 102.968 69.4624C103.034 69.4537 103.1 69.458 103.165 69.4752C103.229 69.4923 103.289 69.5219 103.341 69.5622L103.342 69.5623L103.331 69.5773L103.342 69.5623C103.448 69.6439 103.518 69.7643 103.535 69.897C103.553 70.0298 103.517 70.164 103.435 70.2704L101.387 72.9388C101.34 73.0003 101.279 73.05 101.209 73.0842C101.139 73.1183 101.063 73.136 100.985 73.1358L100.985 73.1364Z" fill="#E6E6E6"/>
<path d="M116.005 76.3684C115 76.3684 114.017 76.0706 113.181 75.5128C112.346 74.9549 111.694 74.162 111.31 73.2343C110.925 72.3066 110.825 71.2857 111.021 70.3009C111.217 69.3161 111.701 68.4114 112.411 67.7014C113.122 66.9914 114.027 66.5078 115.013 66.3119C115.999 66.116 117.021 66.2166 117.949 66.6008C118.878 66.9851 119.672 67.6358 120.23 68.4707C120.788 69.3057 121.086 70.2872 121.086 71.2914C121.085 72.6374 120.549 73.9279 119.596 74.8797C118.644 75.8315 117.352 76.3669 116.005 76.3684ZM116.005 66.6955C115.095 66.6955 114.205 66.9651 113.449 67.4701C112.692 67.9751 112.103 68.6928 111.755 69.5326C111.407 70.3724 111.315 71.2965 111.493 72.188C111.67 73.0795 112.109 73.8984 112.752 74.5412C113.395 75.1839 114.215 75.6216 115.107 75.7989C116 75.9763 116.924 75.8853 117.765 75.5374C118.606 75.1896 119.324 74.6005 119.829 73.8447C120.335 73.0889 120.605 72.2004 120.605 71.2914C120.603 70.0729 120.118 68.9047 119.256 68.0431C118.393 67.1815 117.224 66.6969 116.005 66.6955Z" fill="#E6E6E6"/>
<path d="M117.834 73.0478C117.773 73.1087 117.69 73.1428 117.604 73.1428C117.517 73.1428 117.435 73.1087 117.374 73.0478L116.154 71.8295C116.127 71.8024 116.09 71.7872 116.052 71.7872C116.013 71.7872 115.977 71.8024 115.949 71.8295L114.73 73.0478C114.669 73.1087 114.586 73.143 114.5 73.143C114.414 73.143 114.331 73.1087 114.27 73.0478C114.209 72.9868 114.175 72.9042 114.175 72.818C114.175 72.7318 114.209 72.6491 114.27 72.5882L115.489 71.3699C115.516 71.3427 115.532 71.3059 115.532 71.2675C115.532 71.2291 115.516 71.1923 115.489 71.1651L114.27 69.9468C114.209 69.8859 114.175 69.8032 114.175 69.717C114.175 69.6308 114.209 69.5482 114.27 69.4873C114.331 69.4263 114.414 69.3921 114.5 69.3921C114.586 69.3921 114.669 69.4263 114.73 69.4873L115.949 70.7056C115.976 70.7327 116.013 70.7479 116.052 70.7479C116.09 70.7479 116.127 70.7327 116.154 70.7056L117.374 69.4873C117.435 69.4266 117.517 69.3925 117.604 69.3926C117.69 69.3927 117.772 69.4269 117.833 69.4878C117.894 69.5486 117.928 69.6312 117.928 69.7172C117.929 69.8033 117.894 69.8859 117.834 69.9469L116.614 71.1652C116.587 71.1924 116.572 71.2292 116.572 71.2676C116.572 71.306 116.587 71.3428 116.614 71.37L117.834 72.5883C117.895 72.6493 117.929 72.7319 117.929 72.818C117.929 72.9042 117.895 72.9868 117.834 73.0478Z" fill="#E6E6E6"/>
<path d="M185.748 126.926H89.7781C89.7113 126.926 89.6472 126.899 89.6 126.852C89.5527 126.805 89.5262 126.741 89.5262 126.674C89.5262 126.607 89.5527 126.543 89.6 126.496C89.6472 126.449 89.7113 126.422 89.7781 126.422H185.748C185.815 126.422 185.879 126.449 185.926 126.496C185.973 126.543 186 126.607 186 126.674C186 126.741 185.973 126.805 185.926 126.852C185.879 126.899 185.815 126.926 185.748 126.926Z" fill="#3F3D56"/>
<path d="M103.57 58.0303L103.542 58.0131C103.072 57.7249 102.722 57.2774 102.555 56.752C102.385 56.2167 102.418 55.6377 102.646 55.1246C102.875 54.6116 103.285 54.2002 103.797 53.9685C104.309 53.7367 104.888 53.7007 105.425 53.8673L105.467 53.8801L105.51 53.8784L113.531 53.5574L115.656 57.0212L107.124 56.7375L106.946 56.7316L106.882 56.8975C106.762 57.2087 106.576 57.4898 106.335 57.7211C106.095 57.9524 105.807 58.1283 105.491 58.2363C105.175 58.3443 104.839 58.3819 104.508 58.3463C104.176 58.3106 103.856 58.2028 103.57 58.0303Z" fill="#F4F7FA" stroke="black" stroke-width="0.5"/>
<path d="M153.977 77.5475L153.976 77.5487C153.608 77.9734 153.097 78.2486 152.539 78.322C151.982 78.3955 151.417 78.262 150.951 77.947C150.486 77.6321 150.152 77.1575 150.013 76.6132C149.875 76.0689 149.941 75.4928 150.199 74.9938L150.219 74.9556L150.224 74.9129L151.313 66.9663L155.099 65.4832L153.325 73.8258L153.288 73.9999L153.441 74.0918C153.726 74.2642 153.971 74.4971 154.156 74.774C154.342 75.0509 154.465 75.3652 154.516 75.6946C154.567 76.024 154.546 76.3607 154.452 76.6808C154.359 77.0009 154.197 77.2968 153.977 77.5475Z" fill="#F4F7FA" stroke="black" stroke-width="0.5"/>
<path d="M132.841 111.907L132.841 123.308L130.224 123.308L128.816 111.907L132.841 111.907Z" fill="#F4F7FA" stroke="black" stroke-width="0.5"/>
<path d="M124.173 126.299C124.188 125.865 124.281 125.438 124.447 125.037C124.629 124.597 124.896 124.198 125.233 123.862C125.569 123.525 125.969 123.259 126.409 123.077C126.849 122.894 127.32 122.801 127.797 122.801H127.797H127.797H127.797L133.628 122.801L133.628 126.299L124.173 126.299Z" fill="#F4F7FA" stroke="black" stroke-width="0.5"/>
<path d="M147.955 111.907L147.954 123.308L145.337 123.308L143.93 111.907L147.955 111.907Z" fill="#F4F7FA" stroke="black" stroke-width="0.5"/>
<path d="M139.286 126.299C139.301 125.865 139.394 125.438 139.56 125.037C139.742 124.597 140.009 124.198 140.346 123.862C140.683 123.525 141.083 123.259 141.522 123.077C141.962 122.894 142.434 122.801 142.91 122.801H142.91H142.91H142.91L148.742 122.801L148.742 126.299L139.286 126.299Z" fill="#F4F7FA" stroke="black" stroke-width="0.5"/>
<path d="M129.43 75.8198C136.979 73.1083 143.191 73.3269 148.455 76.4321L149.19 115.603L149.19 115.603C149.192 115.72 149.171 115.836 149.128 115.945C149.084 116.054 149.02 116.154 148.938 116.237C148.855 116.321 148.757 116.388 148.649 116.433C148.541 116.478 148.424 116.502 148.307 116.502H144.621C144.416 116.501 144.218 116.43 144.06 116.3C143.902 116.17 143.793 115.99 143.754 115.789C143.754 115.789 143.754 115.789 143.754 115.789L138.732 90.2691C138.703 90.1225 138.623 89.9909 138.506 89.8982C138.389 89.8054 138.242 89.7575 138.093 89.763C137.944 89.7685 137.801 89.8271 137.691 89.9283C137.581 90.0294 137.511 90.1664 137.493 90.3147L129.43 75.8198ZM129.43 75.8198L128.203 116.01C128.203 116.01 128.203 116.01 128.203 116.01C128.197 116.243 128.282 116.468 128.441 116.638C128.599 116.808 128.818 116.909 129.051 116.919M129.43 75.8198L129.051 116.919M129.051 116.919C129.051 116.919 129.051 116.919 129.052 116.919L133.42 117.094C133.421 117.094 133.421 117.094 133.422 117.094C133.434 117.094 133.445 117.095 133.457 117.095C133.673 117.093 133.881 117.014 134.042 116.871C134.204 116.728 134.308 116.532 134.335 116.318C134.335 116.318 134.335 116.318 134.335 116.317L137.493 90.3149L129.051 116.919Z" fill="#F4F7FA" stroke="black" stroke-width="0.5"/>
<path d="M143.602 34.0658C143.602 37.3412 140.944 39.9968 137.665 39.9968C134.386 39.9968 131.729 37.3412 131.729 34.0658C131.729 30.7904 134.386 28.1348 137.665 28.1348C140.944 28.1348 143.602 30.7904 143.602 34.0658Z" fill="#F4F7FA" stroke="black" stroke-width="0.5"/>
<path d="M108.819 56.7091L108.819 56.7088C108.765 56.5373 108.765 56.3536 108.819 56.1821L109.459 54.1309C109.459 54.1308 109.459 54.1307 109.459 54.1306C109.514 53.9576 109.62 53.8055 109.764 53.6948C109.908 53.584 110.083 53.5201 110.264 53.5116C110.264 53.5116 110.264 53.5116 110.265 53.5116L118.381 53.1532L118.435 53.1507L118.484 53.1259L131.633 46.3914C132.053 46.2601 132.495 46.2114 132.934 46.2483C133.38 46.2857 133.813 46.4105 134.211 46.6155C134.608 46.8205 134.961 47.1018 135.249 47.4432C135.537 47.7845 135.755 48.1793 135.891 48.6049C136.026 49.0306 136.076 49.4787 136.038 49.9237C136 50.3687 135.875 50.8018 135.669 51.1983C135.463 51.5949 135.181 51.947 134.839 52.2346C134.497 52.5222 134.102 52.7396 133.675 52.8743L133.649 52.8826L133.625 52.8964L125.555 57.5729L125.555 57.573C123.159 58.9623 120.338 59.4346 117.619 58.902L117.619 58.902L109.492 57.3112C109.492 57.3111 109.492 57.3111 109.492 57.3111C109.492 57.3111 109.492 57.3111 109.492 57.3111C109.37 57.2872 109.255 57.2379 109.153 57.1666L109.01 57.371L109.153 57.1666C109.052 57.0951 108.967 57.0032 108.903 56.8967L108.903 56.8966C108.868 56.8376 108.839 56.7747 108.819 56.7091Z" fill="#F4F7FA" stroke="black" stroke-width="0.5"/>
<path d="M153.816 71.7821L153.816 71.7822C153.647 71.8431 153.463 71.8511 153.289 71.805C153.289 71.805 153.289 71.8049 153.289 71.8049L151.21 71.2527C151.21 71.2527 151.21 71.2527 151.21 71.2527C151.035 71.2056 150.878 71.1058 150.761 70.9668C150.644 70.8279 150.573 70.6565 150.557 70.4758C150.557 70.4757 150.557 70.4757 150.557 70.4756L149.853 62.3896L149.848 62.3353L149.821 62.2878L142.526 49.4491C142.377 49.0354 142.309 48.5967 142.328 48.1573C142.346 47.7111 142.452 47.2729 142.64 46.8677C142.829 46.4626 143.095 46.0985 143.424 45.7962C143.753 45.4939 144.138 45.2593 144.558 45.106C144.978 44.9526 145.424 44.8835 145.871 44.9025C146.318 44.9215 146.756 45.0283 147.161 45.2167C147.567 45.4052 147.931 45.6716 148.233 46.0007C148.535 46.3299 148.77 46.7153 148.922 47.1349L148.932 47.1607L148.947 47.1839L153.967 55.04L153.967 55.04C155.459 57.3731 156.051 60.1679 155.634 62.9047L155.634 62.9047L154.39 71.0846C154.371 71.2072 154.327 71.3244 154.26 71.4288C154.193 71.5331 154.104 71.6222 154.001 71.6902L154 71.6903C153.943 71.728 153.881 71.7589 153.816 71.7821Z" fill="#F4F7FA" stroke="black" stroke-width="0.5"/>
<path d="M131.083 45.2112L131.082 45.2121C130.033 46.3504 129.253 47.7094 128.799 49.1889C128.346 50.6684 128.23 52.2308 128.461 53.7608L128.461 53.7613L129.923 63.5691L129.927 63.5975L129.925 63.6261L128.759 78.0667C128.75 78.1881 128.765 78.3102 128.805 78.4254C128.845 78.5405 128.908 78.6462 128.991 78.7358C129.073 78.8253 129.174 78.8968 129.285 78.9458C129.397 78.9947 129.518 79.02 129.64 79.02L131.083 45.2112ZM131.083 45.2112C132.12 44.0746 133.4 43.1851 134.827 42.6085C136.255 42.0319 137.794 41.7829 139.33 41.8798L139.331 41.8798M131.083 45.2112L139.331 41.8798M139.331 41.8798C139.433 41.8861 139.534 41.8932 139.636 41.9011L139.645 41.9018M139.331 41.8798L139.645 41.9018M139.645 41.9018C141.098 42.0179 142.509 42.442 143.786 43.1458C145.065 43.8511 146.178 44.821 147.052 45.9907L147.052 45.991C147.94 47.1775 148.565 48.5398 148.884 49.9869C149.204 51.434 149.21 52.9324 148.903 54.3821L148.903 54.3822C147.694 60.0982 148 66.0304 149.79 71.5921L149.79 71.5922L151.45 76.7409L151.45 76.741C151.492 76.8695 151.503 77.0058 151.483 77.1394C151.464 77.273 151.414 77.4003 151.337 77.5116C151.26 77.6228 151.159 77.715 151.041 77.781C150.923 77.847 150.792 77.8851 150.657 77.8923L150.656 77.8923L142.324 78.3399L140.23 74.7253L139.764 73.9205V74.8506V78.4774L129.688 79.0186L129.686 79.0187C129.671 79.0196 129.656 79.02 129.64 79.02L139.645 41.9018Z" fill="#F4F7FA" stroke="black" stroke-width="0.5"/>
<path d="M141.965 39.9667C141.392 40.296 139.128 40.5143 138.967 39.874L138.963 39.86C138.851 39.3908 138.944 38.901 138.976 38.4197C139.009 37.9384 138.962 37.4097 138.633 37.0559C138.022 36.3962 136.934 36.7459 136.049 36.5791C135.531 36.4636 135.073 36.1635 134.761 35.7349C134.448 35.3062 134.303 34.7786 134.352 34.2505C134.364 34.1505 134.384 34.0504 134.406 33.9503C134.462 33.6967 134.457 33.4337 134.394 33.1821C134.33 32.9304 134.209 32.6969 134.04 32.4999C133.871 32.3028 133.659 32.1476 133.419 32.0464C133.18 31.9452 132.921 31.9007 132.661 31.9165C131.768 31.9676 130.803 32.2381 130.064 31.5768C129.492 31.0653 129.352 29.734 129.603 29.0095C130.026 27.7919 132.73 27.1545 133.911 26.8041C135.372 26.3825 136.908 26.2913 138.408 26.5372C139.908 26.7832 141.335 27.36 142.584 28.2258C143.33 28.7511 144.026 29.4111 144.344 30.2657C144.662 31.1203 144.509 32.1985 143.792 32.7627C144.348 33.3505 144.739 34.0739 144.927 34.8603C145.114 35.6468 145.092 36.4688 144.862 37.2438C144.507 38.3837 142.818 39.4766 141.965 39.9667Z" fill="#7247FF"/>
<path d="M56.58 40.2838H16.9675C16.457 40.2832 15.9676 40.0802 15.6068 39.7193C15.246 39.3584 15.0434 38.8692 15.0434 38.3592C15.0434 37.8491 15.246 37.3599 15.6068 36.9991C15.9676 36.6382 16.457 36.4352 16.9675 36.4346H56.58C57.0905 36.4352 57.5799 36.6382 57.9407 36.9991C58.3015 37.3599 58.5041 37.8491 58.5041 38.3592C58.5041 38.8692 58.3015 39.3584 57.9407 39.7193C57.5799 40.0802 57.0905 40.2832 56.58 40.2838Z" fill="#6C63FF"/>
<path d="M56.58 40.2838H16.9675C16.457 40.2832 15.9676 40.0802 15.6068 39.7193C15.246 39.3584 15.0434 38.8692 15.0434 38.3592C15.0434 37.8491 15.246 37.3599 15.6068 36.9991C15.9676 36.6382 16.457 36.4352 16.9675 36.4346H56.58C57.0905 36.4352 57.5799 36.6382 57.9407 36.9991C58.3015 37.3599 58.5041 37.8491 58.5041 38.3592C58.5041 38.8692 58.3015 39.3584 57.9407 39.7193C57.5799 40.0802 57.0905 40.2832 56.58 40.2838Z" fill="url(#paint0_linear_0_972)"/>
<path d="M81.0362 41.9252H13.0259C12.9591 41.9252 12.895 41.8987 12.8478 41.8515C12.8006 41.8043 12.774 41.7403 12.774 41.6735C12.774 41.6068 12.8006 41.5428 12.8478 41.4956C12.895 41.4484 12.9591 41.4219 13.0259 41.4219H81.0362C81.103 41.4219 81.1671 41.4484 81.2143 41.4956C81.2615 41.5428 81.2881 41.6068 81.2881 41.6735C81.2881 41.7403 81.2615 41.8043 81.2143 41.8515C81.1671 41.8987 81.103 41.9252 81.0362 41.9252Z" fill="#3F3D56"/>
<path d="M56.58 56.4024H16.9675C16.4566 56.4024 15.9666 56.1997 15.6054 55.8387C15.2441 55.4778 15.0411 54.9883 15.0411 54.4778C15.0411 53.9674 15.2441 53.4779 15.6054 53.1169C15.9666 52.756 16.4566 52.5532 16.9675 52.5532H56.58C57.0905 52.5538 57.5799 52.7568 57.9407 53.1177C58.3015 53.4786 58.5041 53.9678 58.5041 54.4778C58.5041 54.9879 58.3015 55.4771 57.9407 55.838C57.5799 56.1988 57.0905 56.4019 56.58 56.4024Z" fill="#6C63FF"/>
<path d="M56.58 56.4024H16.9675C16.4566 56.4024 15.9666 56.1997 15.6054 55.8387C15.2441 55.4778 15.0411 54.9883 15.0411 54.4778C15.0411 53.9674 15.2441 53.4779 15.6054 53.1169C15.9666 52.756 16.4566 52.5532 16.9675 52.5532H56.58C57.0905 52.5538 57.5799 52.7568 57.9407 53.1177C58.3015 53.4786 58.5041 53.9678 58.5041 54.4778C58.5041 54.9879 58.3015 55.4771 57.9407 55.838C57.5799 56.1988 57.0905 56.4019 56.58 56.4024Z" fill="url(#paint1_linear_0_972)"/>
<path d="M81.0362 58.0438H13.0259C12.9591 58.0438 12.895 58.0173 12.8478 57.9701C12.8006 57.9229 12.774 57.8589 12.774 57.7922C12.774 57.7254 12.8006 57.6614 12.8478 57.6142C12.895 57.567 12.9591 57.5405 13.0259 57.5405H81.0362C81.103 57.5405 81.1671 57.567 81.2143 57.6142C81.2615 57.6614 81.2881 57.7254 81.2881 57.7922C81.2881 57.8589 81.2615 57.9229 81.2143 57.9701C81.1671 58.0173 81.103 58.0438 81.0362 58.0438Z" fill="#3F3D56"/>
<path d="M56.58 72.5211H16.9675C16.4566 72.5211 15.9666 72.3183 15.6054 71.9574C15.2441 71.5965 15.0411 71.1069 15.0411 70.5965C15.0411 70.086 15.2441 69.5965 15.6054 69.2356C15.9666 68.8746 16.4566 68.6719 16.9675 68.6719H56.58C57.0905 68.6725 57.5799 68.8755 57.9407 69.2364C58.3015 69.5972 58.5041 70.0864 58.5041 70.5965C58.5041 71.1065 58.3015 71.5957 57.9407 71.9566C57.5799 72.3175 57.0905 72.5205 56.58 72.5211Z" fill="#F2F2F2"/>
<path d="M81.0362 74.1625H13.0259C12.9591 74.1625 12.895 74.136 12.8478 74.0888C12.8006 74.0416 12.774 73.9776 12.774 73.9108C12.774 73.8441 12.8006 73.7801 12.8478 73.7329C12.895 73.6857 12.9591 73.6592 13.0259 73.6592H81.0362C81.103 73.6592 81.1671 73.6857 81.2143 73.7329C81.2615 73.7801 81.2881 73.8441 81.2881 73.9108C81.2881 73.9776 81.2615 74.0416 81.2143 74.0888C81.1671 74.136 81.103 74.1625 81.0362 74.1625Z" fill="#3F3D56"/>
</g>
<defs>
<linearGradient id="paint0_linear_0_972" x1="14.8089" y1="36.6232" x2="59.8265" y2="40.1872" gradientUnits="userSpaceOnUse">
<stop stop-color="#4614E8"/>
<stop offset="1" stop-color="#BCA7FF"/>
</linearGradient>
<linearGradient id="paint1_linear_0_972" x1="14.8067" y1="52.7419" x2="59.8265" y2="56.3062" gradientUnits="userSpaceOnUse">
<stop stop-color="#4614E8"/>
<stop offset="1" stop-color="#BCA7FF"/>
</linearGradient>
<clipPath id="clip0_0_972">
<rect width="186" height="127" fill="white"/>
</clipPath>
</defs>
</svg>
