<svg width="219" height="106" viewBox="0 0 219 106" fill="none" xmlns="http://www.w3.org/2000/svg">
<g clip-path="url(#clip0_0_1011)">
<path d="M29.796 84.7473H194.5V1.35889H29.796V84.7473Z" fill="white"/>
<path d="M195.859 86.1061H28.4374V0H195.859V86.1061ZM31.1547 83.3885H193.142V2.71758H31.1547V83.3885Z" fill="#E5E5E5"/>
<path d="M101.667 19C104.429 19 106.667 21.2386 106.667 24V42.303C106.667 45.0644 104.429 47.303 101.667 47.303H65.528L57.9278 56.4229L58.7956 47.303C56.7532 47.303 55.0976 45.6473 55.0976 43.6049V24C55.0976 21.2386 57.3361 19 60.0976 19H101.667Z" fill="url(#paint0_linear_0_1011)"/>
<path d="M131.564 20.6792V38.8259H157.94L162.813 44.673L162.257 38.8259H164.628V20.6792H131.564Z" fill="#F0F0F0"/>
<path d="M25.9351 94.3936L24.8646 103.073H22.9559L22.9557 94.3936H25.9351Z" fill="#F4F7FA" stroke="black" stroke-width="0.5"/>
<path d="M22.3491 105.381L22.349 102.797L26.7855 102.796H26.7855H26.7857C26.7857 102.796 26.7857 102.796 26.7857 102.796C27.5115 102.796 28.2075 103.085 28.7207 103.598C29.1978 104.075 29.4805 104.71 29.518 105.38L22.3491 105.381Z" fill="#F4F7FA" stroke="black" stroke-width="0.5"/>
<path d="M53.3329 102.486L51.4794 102.943L49.4053 94.5146L52.2985 93.8025L53.3329 102.486Z" fill="#F4F7FA" stroke="black" stroke-width="0.5"/>
<path d="M55.1307 101.759L55.1318 101.758L55.132 101.758C55.8367 101.585 56.5815 101.699 57.2025 102.074C57.7797 102.424 58.206 102.973 58.4025 103.615L51.4413 105.328L50.8238 102.819L55.1305 101.759L55.1307 101.759Z" fill="#F4F7FA" stroke="black" stroke-width="0.5"/>
<path d="M21.5402 100.915L21.9823 98.6534L21.9847 98.6411L21.9859 98.6286L21.9859 98.6285L21.986 98.6274L21.9864 98.6226L21.9884 98.6026C21.9903 98.5846 21.9932 98.5573 21.9972 98.5211C22.0053 98.4488 22.018 98.3407 22.0366 98.1993C22.0738 97.9166 22.1344 97.5005 22.2274 96.9703C22.4134 95.9098 22.7294 94.3929 23.2486 92.5722C24.2873 88.9302 26.138 84.0772 29.3851 79.2306L29.4128 79.1893L29.4226 79.1406L31.5482 68.5521L31.5551 68.518L31.5524 68.4834L31.5523 68.4833L31.5523 68.4833L31.5523 68.4826L31.552 68.479L31.551 68.4633C31.55 68.4491 31.5487 68.4274 31.5472 68.3987C31.5442 68.3412 31.5404 68.2554 31.5378 68.1441C31.5326 67.9215 31.5317 67.5972 31.5494 67.1938C31.5849 66.3866 31.6949 65.2653 31.9924 64.0109C32.5876 61.5008 33.9289 58.4766 36.9084 56.3544L38.7147 55.11L45.0189 55.4713L46.5041 63.6032L49.5685 83.3064L49.5984 83.4987L49.7808 83.5158C49.7871 83.5177 49.8025 83.523 49.8249 83.5352C49.8709 83.56 49.9528 83.6168 50.0504 83.7429C50.2478 83.998 50.51 84.5375 50.6552 85.6533L50.6623 85.7078L50.6916 85.7543C51.2724 86.6763 51.6161 87.7278 51.6918 88.8149L51.6943 88.8499L51.7062 88.8828L51.9412 88.7976L51.7062 88.8828L51.7062 88.8829L51.7064 88.8834L51.7072 88.8856L51.7105 88.8947L51.7235 88.931C51.7349 88.9631 51.7518 89.0107 51.7735 89.0725C51.8169 89.1962 51.8795 89.3767 51.956 89.6034C52.1089 90.0569 52.3172 90.6947 52.5386 91.4315C52.9805 92.9026 53.4709 94.7569 53.6797 96.3258L53.6329 99.2777L50.7073 100.836L43.9009 81.5858L43.8974 81.5758L43.893 81.5661L38.9555 70.6507L38.6836 70.0497L38.4889 70.6799L38.7277 70.7537L38.4888 70.68L38.4888 70.6802L38.4885 70.6812L38.4872 70.6852L38.4822 70.7015L38.4617 70.7664C38.4436 70.8239 38.4165 70.9092 38.3806 71.0202C38.3089 71.2423 38.2022 71.5673 38.0628 71.978C37.784 72.7995 37.3742 73.9637 36.851 75.3334C35.804 78.074 34.3046 81.6318 32.4925 84.9118L32.4882 84.9197L32.4844 84.9279L32.7113 85.0327C32.4844 84.9279 32.4844 84.9279 32.4843 84.928L32.4841 84.9284L32.4835 84.9299L32.4808 84.9357L32.47 84.9589L32.4281 85.0496L32.2682 85.3959L31.6898 86.6484C31.2068 87.6945 30.5525 89.112 29.8671 90.5981C28.4963 93.5697 27.0006 96.8167 26.5022 97.9138L26.4953 97.9289L26.4905 97.9447L25.463 101.335L21.5402 100.915Z" fill="#F4F7FA" stroke="black" stroke-width="0.5"/>
<path d="M43.2635 38.0965C45.8634 38.0965 47.971 35.9887 47.971 33.3886C47.971 30.7885 45.8634 28.6807 43.2635 28.6807C40.6636 28.6807 38.556 30.7885 38.556 33.3886C38.556 35.9887 40.6636 38.0965 43.2635 38.0965Z" fill="#FFB7B7"/>
<path d="M47.721 33.3886C47.721 35.8507 45.7253 37.8465 43.2635 37.8465C40.8017 37.8465 38.806 35.8507 38.806 33.3886C38.806 30.9265 40.8017 28.9307 43.2635 28.9307C45.7253 28.9307 47.721 30.9265 47.721 33.3886Z" fill="#F4F7FA" stroke="black" stroke-width="0.5"/>
<path d="M38.5648 52.4104L38.5976 52.3283L38.5715 52.2437C37.4962 48.7603 37.5548 45.0259 38.738 41.5788L38.981 41.3787C40.2445 40.3381 41.3925 39.9433 42.4553 40.0873C43.5224 40.2319 44.5662 40.928 45.6004 42.2071C45.9546 42.6493 46.3688 43.0399 46.8311 43.3675L46.8321 43.3682C47.0161 43.4973 47.2602 43.7996 47.4922 44.2435C47.7201 44.6796 47.9228 45.2264 48.0389 45.8164C48.2722 47.002 48.1491 48.3132 47.2508 49.2714L47.1995 49.3262L47.1868 49.4002L45.6276 58.4963L45.6233 58.5214L45.6241 58.5467C45.6648 59.7917 45.4629 60.526 45.1275 60.8922C44.8189 61.229 44.3286 61.3174 43.5725 61.0664C42.8166 60.8154 41.8664 60.2437 40.7444 59.3808C39.6582 58.5455 38.426 57.4492 37.073 56.137L38.5648 52.4104Z" fill="#F4F7FA" stroke="black" stroke-width="0.5"/>
<path d="M57.3583 53.6522L52.1294 53.3188L52.7353 51.4711L56.4662 51.7616L56.6326 51.7746L56.7084 51.6258C56.8061 51.4338 56.9448 51.2656 57.1146 51.133C57.2843 51.0004 57.4811 50.9066 57.691 50.8583C57.901 50.81 58.1189 50.8083 58.3296 50.8534C58.5336 50.897 58.7259 50.9834 58.8939 51.1068L58.9116 51.12C59.2025 51.3371 59.4037 51.6535 59.4771 52.009C59.5504 52.3646 59.4908 52.7347 59.3095 53.0493C59.1282 53.3638 58.8379 53.6009 58.4935 53.7157C58.1491 53.8304 57.7746 53.8148 57.4409 53.6719L57.4013 53.6549L57.3583 53.6522Z" fill="#F4F7FA" stroke="black" stroke-width="0.5"/>
<path d="M45.1274 44.8474L45.1275 44.8476L46.8344 49.5682L46.8842 49.7059L47.0286 49.7298L55.6313 51.1539L55.0962 54.4247L44.2696 52.403L40.7008 46.4192C40.4981 45.839 40.5308 45.2022 40.7923 44.6454C41.0572 44.0816 41.5352 43.6461 42.1212 43.4347C42.7072 43.2234 43.3531 43.2535 43.9168 43.5184C44.4806 43.7833 44.916 44.2614 45.1274 44.8474Z" fill="#F4F7FA" stroke="black" stroke-width="0.5"/>
<path d="M34.8724 32.3571C37.3666 32.3571 39.3886 30.3349 39.3886 27.8404C39.3886 25.3459 37.3666 23.3237 34.8724 23.3237C32.3781 23.3237 30.3561 25.3459 30.3561 27.8404C30.3561 30.3349 32.3781 32.3571 34.8724 32.3571Z" fill="#7247FF"/>
<path d="M30.9768 31.5808C31.5613 32.0033 32.2385 32.2797 32.9518 32.3868C33.665 32.4939 34.3936 32.4287 35.0764 32.1965C35.7593 31.9643 36.3766 31.5719 36.8767 31.0522C37.3768 30.5324 37.7452 29.9005 37.9511 29.2092C37.8732 29.8287 37.6677 30.4253 37.3476 30.9614C37.0275 31.4975 36.5998 31.9614 36.0914 32.3238C35.5829 32.6862 35.0049 32.9393 34.3938 33.067C33.7827 33.1948 33.1517 33.1944 32.5407 33.0659C31.9297 32.9375 31.352 32.6837 30.844 32.3207C30.336 31.9577 29.9088 31.4933 29.5894 30.9568C29.2699 30.4204 29.0651 29.8235 28.988 29.2039C28.9108 28.5843 28.9629 27.9554 29.1411 27.3569C29.0399 28.1609 29.1569 28.9774 29.4799 29.7205C29.8029 30.4637 30.3199 31.1063 30.9768 31.5808Z" fill="#7247FF"/>
<path d="M48.8 31.5855C48.0116 30.1739 47.7099 29.5842 46.6933 28.7258C45.7944 27.9667 44.6886 27.7437 43.7967 28.463C42.7417 28.0071 41.5677 27.9037 40.4492 28.1683C39.3306 28.4328 38.3273 29.0511 37.5881 29.9313C36.849 30.8115 36.4134 31.9067 36.3462 33.0542C36.279 34.2017 36.5836 35.3402 37.215 36.3008C37.8463 37.2613 38.7706 37.9925 39.8506 38.3859C40.9305 38.7792 42.1086 38.8136 43.2097 38.4841C44.3108 38.1545 45.2762 37.4785 45.9626 36.5565C46.6489 35.6345 47.0196 34.5157 47.0195 33.3662C47.0187 33.1644 47.0065 32.9627 46.9831 32.7622C47.7584 32.6534 48.0248 31.6944 48.8 31.5855Z" fill="#7247FF"/>
<path d="M187.886 65.3896L187.887 65.388C187.9 65.1129 187.973 64.8441 188.101 64.6004C188.229 64.3567 188.409 64.1441 188.628 63.9775C188.848 63.8109 189.101 63.6944 189.37 63.6362C189.639 63.578 189.917 63.5795 190.186 63.6407L190.349 63.6777L190.445 63.5416L193.153 59.7257L195.504 60.6593L191.632 65.9575L191.607 65.9923L191.594 66.0335C191.462 66.4781 191.17 66.8585 190.776 67.1027C190.382 67.3469 189.911 67.4379 189.454 67.3586C188.997 67.2792 188.585 67.0349 188.296 66.672C188.007 66.3091 187.862 65.8528 187.886 65.3896Z" fill="#F4F7FA" stroke="black" stroke-width="0.5"/>
<path d="M201.393 53.9575L193.135 64.6715L191.033 61.9385L195.962 53.6478L196.023 53.5446L195.981 53.4323L193.971 48.0702L196.625 40.9919C196.999 41.2132 198.04 41.9998 198.224 43.9766L198.226 44.0035L198.234 44.0293L201.393 53.9575Z" fill="#F4F7FA" stroke="black" stroke-width="0.5"/>
<path d="M163.458 31.1896L163.46 31.1898C163.733 31.2241 163.995 31.3178 164.228 31.4645C164.461 31.6111 164.659 31.807 164.808 32.0385C164.958 32.2699 165.054 32.5313 165.091 32.8041C165.129 33.0769 165.105 33.3546 165.024 33.6175L164.974 33.777L165.103 33.8838L168.697 36.8784L167.585 39.1509L162.602 34.8803L162.57 34.8523L162.529 34.8368C162.097 34.6702 161.74 34.3505 161.527 33.9384C161.314 33.5262 161.259 33.0503 161.374 32.6007C161.488 32.1512 161.764 31.7592 162.148 31.4991C162.532 31.2391 162.998 31.1289 163.458 31.1896Z" fill="#F4F7FA" stroke="black" stroke-width="0.5"/>
<path d="M173.81 45.5406L163.768 36.4783L166.655 34.5936L174.539 40.1493L174.637 40.2185L174.752 40.1851L180.253 38.595L187.105 41.7886C186.855 42.1445 185.99 43.1222 184.005 43.1521L183.978 43.1526L183.952 43.1587L173.81 45.5406Z" fill="#F4F7FA" stroke="black" stroke-width="0.5"/>
<path d="M181.09 102.79H178.772L177.507 92.5313L181.091 92.5315L181.09 102.79Z" fill="#F4F7FA" stroke="black" stroke-width="0.5"/>
<path d="M176.559 102.493H181.688V105.38H173.432C173.458 105.054 173.535 104.733 173.661 104.43C173.819 104.049 174.05 103.703 174.341 103.412C174.632 103.121 174.978 102.89 175.359 102.732C175.739 102.574 176.147 102.493 176.559 102.493Z" fill="#F4F7FA" stroke="black" stroke-width="0.5"/>
<path d="M192.238 102.79H189.92L188.655 92.5313L192.238 92.5315L192.238 102.79Z" fill="#F4F7FA" stroke="black" stroke-width="0.5"/>
<path d="M187.706 102.493H192.835V105.38H184.58C184.606 105.054 184.683 104.733 184.808 104.43C184.966 104.049 185.197 103.703 185.488 103.412C185.78 103.121 186.125 102.89 186.506 102.732C186.887 102.574 187.294 102.493 187.706 102.493Z" fill="#F4F7FA" stroke="black" stroke-width="0.5"/>
<path d="M193.226 64.0354L193.002 79.6923L193.002 79.6931L192.778 100.354L188.251 99.9424L185.766 71.256L185.269 71.2502L182.108 99.9224H177.411L176.895 71.0828L178.657 64.9183L193.226 64.0354Z" fill="#F4F7FA" stroke="black" stroke-width="0.5"/>
<path d="M178.065 64.5468L178.023 64.5286L177.977 64.5266L177.501 64.506L180.991 45.2761L181.001 45.2236L180.988 45.1718L179.538 39.2743C179.538 39.2743 179.538 39.2743 179.538 39.2743C179.477 39.0269 179.509 38.7658 179.628 38.5405C179.747 38.3152 179.944 38.1413 180.183 38.0518L182.792 37.0734L182.899 37.033L182.939 36.9248L183.794 34.5738L190.668 35.3145L190.828 37.0917L190.843 37.2567L191.001 37.3073C191.391 37.4325 193.194 38.0307 194.839 38.9C195.663 39.3355 196.432 39.8309 196.964 40.3584C197.501 40.8909 197.751 41.4083 197.661 41.9016C197.444 43.0977 196.687 45.6003 195.961 47.8698C195.237 50.1318 194.553 52.1389 194.486 52.3321L194.475 52.3664L194.473 52.4026L194.022 63.2223C193.982 63.2413 193.927 63.2673 193.857 63.2992C193.706 63.3688 193.486 63.4667 193.206 63.5834C192.647 63.817 191.851 64.1256 190.887 64.4333C188.959 65.0493 186.372 65.658 183.684 65.6578V65.6578L183.68 65.6578C181.75 65.6901 179.836 65.3114 178.065 64.5468Z" fill="#F4F7FA" stroke="black" stroke-width="0.5"/>
<path d="M191.963 27.8129C191.963 30.567 189.731 32.7997 186.977 32.7997C184.223 32.7997 181.991 30.567 181.991 27.8129C181.991 25.0588 184.223 22.8262 186.977 22.8262C189.731 22.8262 191.963 25.0588 191.963 27.8129Z" fill="#F4F7FA" stroke="black" stroke-width="0.5"/>
<path d="M191.218 32.8825C190.22 33.9456 188.367 33.3749 188.237 31.9226C188.227 31.8099 188.228 31.6964 188.239 31.5838C188.306 30.9404 188.678 30.3564 188.589 29.6771C188.569 29.5081 188.506 29.347 188.406 29.2091C187.611 28.1441 185.744 29.6854 184.994 28.7213C184.534 28.1302 185.074 27.1995 184.721 26.5388C184.255 25.6668 182.875 26.0969 182.009 25.6194C181.046 25.088 181.103 23.61 181.737 22.711C182.511 21.6147 183.867 21.0296 185.205 20.9453C186.544 20.861 187.874 21.223 189.124 21.7102C190.544 22.2637 191.953 23.0287 192.827 24.2776C193.889 25.7964 193.992 27.8383 193.46 29.6143C193.137 30.6947 192.033 32.0144 191.218 32.8825Z" fill="#7247FF"/>
<path d="M134.951 99.7078L134.343 101.27L127.091 98.4503L128.047 95.9933L134.951 99.7078Z" fill="#F4F7FA" stroke="black" stroke-width="0.5"/>
<path d="M135.399 97.9987L135.399 97.9985C135.516 97.6992 135.69 97.4258 135.912 97.1938C136.133 96.9618 136.399 96.7758 136.693 96.6465C136.987 96.5171 137.303 96.447 137.624 96.44C137.891 96.4342 138.156 96.4722 138.41 96.5521L136.085 102.535L133.958 101.707L134.066 101.43L134.066 101.43L134.875 99.3477L134.875 99.3476L135.399 97.9987Z" fill="#F4F7FA" stroke="black" stroke-width="0.5"/>
<path d="M132.449 100.705C130.396 100.931 128.142 100.41 126.029 99.5946L126.029 99.5946C125.164 99.261 124.318 98.8831 123.492 98.4622L123.491 98.4618C122.267 97.8432 121.17 97.1899 120.294 96.6305C119.635 96.2075 119.102 95.8373 118.734 95.5732C118.55 95.4412 118.407 95.3357 118.311 95.2634C118.263 95.2273 118.226 95.1995 118.202 95.1808L118.175 95.1597L118.168 95.1545L118.166 95.1533L118.166 95.153L118.166 95.153L118.166 95.153L132.449 100.705ZM132.449 100.705L133.261 98.5514L133.495 98.6396L133.261 98.5514L133.523 97.8568L120.951 90.9335L120.931 90.9228L120.914 90.9088L120.914 90.9088L120.914 90.9087L120.914 90.9087L120.913 90.9078L120.907 90.9035L120.884 90.8855C120.864 90.8695 120.832 90.8457 120.791 90.8155C120.71 90.7551 120.589 90.6695 120.437 90.5703C120.132 90.3715 119.702 90.12 119.202 89.9075C118.193 89.4781 116.953 89.2304 115.868 89.8083L115.868 89.8085C115.194 90.1659 114.193 90.6676 113.105 91.2013L113.105 91.2014C110.991 92.2361 108.541 93.4001 107.499 93.8934C107.353 93.9625 106.977 94.1887 106.621 94.4085C106.456 94.5104 106.3 94.608 106.181 94.6827C106.197 94.7045 106.213 94.7278 106.23 94.7525C106.355 94.9304 106.538 95.1824 106.769 95.4772C107.23 96.0677 107.878 96.8254 108.629 97.5024C109.382 98.1821 110.223 98.7656 111.069 99.0289C111.903 99.2887 112.735 99.2369 113.518 98.6565C113.982 98.3108 114.416 97.9799 114.82 97.6638L114.821 97.6633C115.881 96.8395 116.718 96.1398 117.241 95.6919C117.436 95.5249 117.587 95.3927 117.69 95.3025C117.741 95.2574 117.78 95.2228 117.806 95.1996L117.835 95.1733L117.842 95.1667L117.844 95.1652L117.845 95.1648L117.845 95.1647L117.845 95.1647L132.449 100.705Z" fill="#F4F7FA" stroke="black" stroke-width="0.5"/>
<path opacity="0.14" d="M132.449 100.705C130.396 100.931 128.142 100.41 126.029 99.5946L126.029 99.5946C125.164 99.261 124.318 98.8831 123.492 98.4622L123.491 98.4618C122.267 97.8432 121.17 97.1899 120.294 96.6305C119.635 96.2075 119.102 95.8373 118.734 95.5732C118.55 95.4412 118.407 95.3357 118.311 95.2634C118.263 95.2273 118.226 95.1995 118.202 95.1808L118.175 95.1597L118.168 95.1545L118.166 95.1533L118.166 95.153L118.166 95.153L118.166 95.153L132.449 100.705ZM132.449 100.705L133.261 98.5514L133.495 98.6396L133.261 98.5514L133.523 97.8568L120.951 90.9335L120.931 90.9228L120.914 90.9088L120.914 90.9088L120.914 90.9087L120.914 90.9087L120.913 90.9078L120.907 90.9035L120.884 90.8855C120.864 90.8695 120.832 90.8457 120.791 90.8155C120.71 90.7551 120.589 90.6695 120.437 90.5703C120.132 90.3715 119.702 90.12 119.202 89.9075C118.193 89.4781 116.953 89.2304 115.868 89.8083L115.868 89.8085C115.194 90.1659 114.193 90.6676 113.105 91.2013L113.105 91.2014C110.991 92.2361 108.541 93.4001 107.499 93.8934C107.353 93.9625 106.977 94.1887 106.621 94.4085C106.456 94.5104 106.3 94.608 106.181 94.6827C106.197 94.7045 106.213 94.7278 106.23 94.7525C106.355 94.9304 106.538 95.1824 106.769 95.4772C107.23 96.0677 107.878 96.8254 108.629 97.5024C109.382 98.1821 110.223 98.7656 111.069 99.0289C111.903 99.2887 112.735 99.2369 113.518 98.6565C113.982 98.3108 114.416 97.9799 114.82 97.6638L114.821 97.6633C115.881 96.8395 116.718 96.1398 117.241 95.6919C117.436 95.5249 117.587 95.3927 117.69 95.3025C117.741 95.2574 117.78 95.2228 117.806 95.1996L117.835 95.1733L117.842 95.1667L117.844 95.1652L117.845 95.1648L117.845 95.1647L117.845 95.1647L132.449 100.705Z" fill="#F4F7FA" stroke="black" stroke-width="0.5"/>
<path d="M99.5006 78.907H89.3441C89.1352 78.9068 88.9349 78.8237 88.7872 78.676C88.6395 78.5282 88.5564 78.3279 88.5561 78.119V73.7408C88.5561 72.1848 89.1742 70.6926 90.2743 69.5924C91.3744 68.4921 92.8665 67.874 94.4224 67.874C95.9782 67.874 97.4703 68.4921 98.5704 69.5924C99.6705 70.6926 100.289 72.1848 100.289 73.7408V78.119C100.288 78.3279 100.205 78.5282 100.058 78.676C99.9098 78.8237 99.7095 78.9068 99.5006 78.907Z" fill="#7247FF"/>
<path d="M106.336 90.7795L105.453 89.1792L108.07 86.7717L108.193 86.6587L108.136 86.5019C108.066 86.3107 108.039 86.1066 108.056 85.9038C108.074 85.701 108.136 85.5046 108.238 85.3283C108.339 85.152 108.478 85.0002 108.645 84.8835C108.806 84.7707 108.989 84.6934 109.182 84.6566L109.204 84.6526C109.541 84.5911 109.89 84.6555 110.183 84.8336C110.476 85.0117 110.693 85.2912 110.794 85.619C110.895 85.9468 110.872 86.3003 110.73 86.6123C110.588 86.9244 110.336 87.1734 110.022 87.3122L109.983 87.3296L109.951 87.3592L106.336 90.7795Z" fill="#F4F7FA" stroke="black" stroke-width="0.5"/>
<path d="M100.496 95.6911L100.495 95.691C99.7924 95.6324 99.116 95.3961 98.5295 95.0044C97.943 94.6127 97.4657 94.0784 97.1422 93.4517L97.1419 93.451L92.7173 84.9341C92.7173 84.9341 92.7173 84.9341 92.7173 84.9341C92.4571 84.4331 92.4 83.8511 92.5579 83.3091C92.7158 82.7671 93.0766 82.3068 93.5651 82.0241C94.0537 81.7413 94.6324 81.6578 95.181 81.7908C95.7236 81.9225 96.1954 82.2561 96.5004 82.7232L100.575 91.8653L100.707 92.1633L100.961 91.9576L106.402 87.5359L109.144 88.6035L103.957 94.3305C103.957 94.3306 103.957 94.3307 103.957 94.3307C103.563 94.7633 103.083 95.1091 102.548 95.3459C102.013 95.5828 101.434 95.7055 100.849 95.7063C100.731 95.7063 100.614 95.7013 100.496 95.6911Z" fill="#F4F7FA" stroke="black" stroke-width="0.5"/>
<path d="M134.473 102.564L133.748 104.075L126.734 100.706L127.875 98.3299L134.473 102.564Z" fill="#F4F7FA" stroke="black" stroke-width="0.5"/>
<path d="M135.052 100.894L135.052 100.894C135.191 100.605 135.386 100.345 135.625 100.131C135.864 99.9168 136.143 99.7517 136.446 99.6453C136.748 99.539 137.069 99.4933 137.39 99.511C137.656 99.5258 137.918 99.584 138.165 99.6832L135.387 105.47L133.33 104.481L133.459 104.213L133.459 104.213L134.425 102.199L134.425 102.199L135.052 100.894Z" fill="#F4F7FA" stroke="black" stroke-width="0.5"/>
<path d="M133.192 100.609L121.189 92.7399L121.17 92.7276L121.154 92.7124L121.154 92.7124L121.154 92.7123L121.154 92.7123L121.153 92.7113L121.148 92.7067L121.126 92.6869C121.107 92.6694 121.078 92.6432 121.039 92.61C120.962 92.5435 120.849 92.4488 120.704 92.3382C120.416 92.1166 120.007 91.8329 119.525 91.5826C118.551 91.0768 117.334 90.7347 116.208 91.2274L116.207 91.2276C115.508 91.5322 114.472 91.9555 113.346 92.404L113.345 92.4041C111.159 93.2733 108.627 94.2458 107.55 94.6574M133.192 100.609L105.907 94.4169M133.192 100.609L132.877 101.281L131.902 103.366C129.839 103.433 127.631 102.741 125.587 101.766L125.587 101.766C124.75 101.367 123.935 100.925 123.144 100.442L123.143 100.441C121.97 99.7303 120.927 98.9946 120.096 98.3695C119.472 97.8972 118.969 97.4871 118.622 97.1956C118.449 97.0498 118.315 96.9336 118.225 96.8542C118.179 96.8145 118.145 96.7839 118.122 96.7634L118.096 96.7403L118.09 96.7346L118.089 96.7333L118.088 96.733L118.088 96.7329L118.088 96.7329L133.192 100.609ZM107.55 94.6574L107.46 94.4239M107.55 94.6574L107.46 94.4239M107.55 94.6574C107.382 94.7214 107.25 94.7718 107.159 94.8062L107.056 94.8456L107.029 94.8557L107.022 94.8582L107.021 94.8589L107.02 94.8591L107.02 94.8591L107.02 94.8591L107.02 94.8591L106.932 94.6253L107.02 94.8591L106.953 94.8847L106.882 94.8703L105.858 94.6619L105.907 94.4169M107.46 94.4239C108.537 94.0124 111.068 93.0404 113.253 92.1718L107.46 94.4239ZM105.907 94.4169L105.857 94.6619L102.967 94.077L102.966 94.077L100.456 93.5674M105.907 94.4169L103.016 93.832L100.419 93.3048M100.456 93.5674L100.534 93.5267L100.419 93.3048M100.456 93.5674L100.369 93.5498L100.419 93.3048M100.456 93.5674L94.5296 96.6455M100.419 93.3048L94.3026 96.4817M94.3026 96.4817L94.5488 96.525L94.5488 96.5252L94.5486 96.5262L94.5477 96.5311L94.5443 96.5516C94.5413 96.57 94.5368 96.5978 94.5313 96.6341C94.5308 96.6378 94.5302 96.6416 94.5296 96.6455M94.3026 96.4817L94.4178 96.7035L94.5296 96.6455M94.3026 96.4817L117.933 96.5915L117.767 96.7199L117.767 96.7199L117.767 96.72L117.766 96.7203L117.765 96.7218L117.757 96.7277L117.726 96.7517C117.698 96.7729 117.656 96.8044 117.602 96.8454C117.493 96.9275 117.332 97.0476 117.124 97.1993C116.568 97.6055 115.68 98.2389 114.56 98.9788L114.559 98.9792C114.132 99.2635 113.674 99.5601 113.184 99.8691C109.568 102.143 104.464 104.886 100.146 105.463L100.146 105.463C98.2822 105.712 97.032 105.275 96.1856 104.516C95.33 103.749 94.8523 102.622 94.6036 101.431C94.3554 100.242 94.3408 99.0153 94.3897 98.0813C94.4141 97.6154 94.4541 97.2247 94.488 96.9511C94.504 96.8212 94.5187 96.7179 94.5296 96.6455" fill="#F4F7FA" stroke="black" stroke-width="0.5"/>
<path d="M83.0541 105.712L83.0556 105.725L83.0525 105.712C82.7188 105.791 82.3677 105.745 82.0658 105.582C81.7639 105.419 81.5321 105.152 81.4145 104.829C81.2968 104.507 81.3014 104.153 81.4274 103.834C81.5534 103.515 81.792 103.253 82.0981 103.099L82.1365 103.079L82.1662 103.048L85.5997 99.4453L86.5646 100.998L84.0753 103.537L83.9584 103.657L84.0238 103.81C84.1034 103.998 84.141 104.2 84.1339 104.403C84.1269 104.607 84.0753 104.806 83.9828 104.988C83.8904 105.169 83.7593 105.328 83.5989 105.453C83.4384 105.578 83.2524 105.666 83.0541 105.712Z" fill="#F4F7FA" stroke="black" stroke-width="0.5"/>
<path d="M99.7054 75.0072C99.7054 77.1311 97.9838 78.8528 95.8602 78.8528C93.7366 78.8528 92.015 77.1311 92.015 75.0072C92.015 72.8833 93.7366 71.1616 95.8602 71.1616C97.9838 71.1616 99.7054 72.8833 99.7054 75.0072Z" fill="#F4F7FA" stroke="black" stroke-width="0.5"/>
<path d="M94.3139 96.6201L94.3751 96.519L94.3358 96.4076L90.7913 86.3578L91.8195 81.2144L97.136 80.2698L101.254 85.2819L101.271 85.3028L101.292 85.3196L101.322 85.3427L101.338 85.3559L101.357 85.366C102.066 85.751 102.599 86.3938 102.847 87.1613C103.113 88.093 102.883 89.1995 102.089 90.4704L102.089 90.4707L102.072 90.4971L102.026 90.5723L102.037 90.6603L102.313 92.8759L94.1039 98.6147C94.0621 98.5934 94.023 98.5672 93.9873 98.5364C93.9238 98.4816 93.8729 98.4139 93.8379 98.3377C93.7736 98.1898 93.7589 97.9779 93.8299 97.6882C93.9007 97.399 94.0524 97.0525 94.2925 96.6556L94.2925 96.6555L94.3139 96.6201Z" fill="#F4F7FA" stroke="black" stroke-width="0.5"/>
<path d="M97.3833 84.8964L97.63 84.9365L97.3833 84.8964C97.3124 85.3317 97.1491 85.7467 96.9042 86.1135L91.9738 93.501L91.9732 93.502L85.0889 103.71L83.0228 101.167L88.6926 91.8066L88.7077 91.7817L88.7167 91.754L91.4026 83.4508C91.5384 83.0312 91.7625 82.6455 92.0598 82.3198C92.3572 81.9942 92.7209 81.736 93.1264 81.5628C93.532 81.3896 93.9699 81.3054 94.4108 81.3158C94.8517 81.3262 95.2852 81.431 95.6821 81.6231C96.079 81.8152 96.4302 82.0902 96.7119 82.4295C96.9936 82.7688 97.1992 83.1646 97.3151 83.5901C97.4309 84.0156 97.4541 84.4611 97.3833 84.8964Z" fill="#F4F7FA" stroke="black" stroke-width="0.5"/>
<path d="M101.676 74.1791H95.4659L95.4022 73.2874L95.0838 74.1791H94.1275L94.0013 72.4118L93.3702 74.1791H91.5199V74.0915C91.5213 72.8611 92.0106 71.6815 92.8806 70.8115C93.7505 69.9415 94.93 69.4521 96.1603 69.4507H97.0359C98.2662 69.4521 99.4457 69.9415 100.316 70.8115C101.186 71.6815 101.675 72.8611 101.676 74.0915V74.1791Z" fill="#7247FF"/>
<path d="M95.415 79.7243C95.3682 79.7242 95.3216 79.7201 95.2755 79.712L90.728 78.9095V71.3931H95.734L95.61 71.5376C93.8857 73.5488 95.1848 76.81 96.1126 78.575C96.181 78.7043 96.2115 78.8502 96.2006 78.9961C96.1897 79.1419 96.1378 79.2817 96.0509 79.3993C95.9782 79.4999 95.8826 79.5818 95.7721 79.6383C95.6615 79.6948 95.5391 79.7243 95.415 79.7243Z" fill="#7247FF"/>
<path d="M163.357 66.2583V76.8473H116.452L109.678 84.9745L110.452 76.8473H107.156V66.2583H163.357Z" fill="#F0F0F0"/>
<path d="M126.657 73.4549C127.717 73.4549 128.576 72.5957 128.576 71.5358C128.576 70.4759 127.717 69.6167 126.657 69.6167C125.597 69.6167 124.738 70.4759 124.738 71.5358C124.738 72.5957 125.597 73.4549 126.657 73.4549Z" fill="white"/>
<path d="M120.181 73.4549C121.241 73.4549 122.1 72.5957 122.1 71.5358C122.1 70.4759 121.241 69.6167 120.181 69.6167C119.121 69.6167 118.262 70.4759 118.262 71.5358C118.262 72.5957 119.121 73.4549 120.181 73.4549Z" fill="white"/>
<path d="M113.704 73.4549C114.764 73.4549 115.623 72.5957 115.623 71.5358C115.623 70.4759 114.764 69.6167 113.704 69.6167C112.644 69.6167 111.785 70.4759 111.785 71.5358C111.785 72.5957 112.644 73.4549 113.704 73.4549Z" fill="white"/>
<path d="M218.76 105.84H0.239869C0.176251 105.84 0.11524 105.815 0.0702557 105.77C0.0252716 105.725 0 105.664 0 105.6C0 105.537 0.0252716 105.476 0.0702557 105.431C0.11524 105.386 0.176251 105.36 0.239869 105.36H218.76C218.824 105.36 218.885 105.386 218.93 105.431C218.975 105.476 219 105.537 219 105.6C219 105.664 218.975 105.725 218.93 105.77C218.885 105.815 218.824 105.84 218.76 105.84Z" fill="#CACACA"/>
</g>
<defs>
<linearGradient id="paint0_linear_0_1011" x1="54.8194" y1="20.8339" x2="108.566" y2="21.3532" gradientUnits="userSpaceOnUse">
<stop stop-color="#4614E8"/>
<stop offset="1" stop-color="#BCA7FF"/>
</linearGradient>
<clipPath id="clip0_0_1011">
<rect width="219" height="106" fill="white"/>
</clipPath>
</defs>
</svg>
