<svg width="219" height="159" viewBox="0 0 219 159" fill="none" xmlns="http://www.w3.org/2000/svg">
<g clip-path="url(#clip0_0_1062)">
<path d="M139.558 119.197V157.526H43.6867C32.7635 157.526 23.8763 148.928 23.8763 138.361C23.8763 127.795 32.7635 119.197 43.6867 119.197H139.558Z" fill="#F2F2F2"/>
<path d="M141.913 157.231C141.912 157.622 141.757 157.997 141.481 158.273C141.205 158.55 140.831 158.705 140.441 158.705H41.9792C36.6315 158.705 31.5029 156.577 27.7216 152.79C23.9402 149.002 21.8159 143.865 21.8159 138.509C21.8159 133.153 23.9402 128.016 27.7216 124.228C31.5029 120.441 36.6315 118.313 41.9792 118.313H140.441C140.831 118.313 141.206 118.468 141.482 118.745C141.758 119.021 141.913 119.396 141.913 119.787C141.913 120.178 141.758 120.553 141.482 120.83C141.206 121.106 140.831 121.261 140.441 121.261H41.9792C37.4122 121.261 33.0323 123.079 29.803 126.313C26.5736 129.548 24.7594 133.935 24.7594 138.509C24.7594 143.084 26.5736 147.471 29.803 150.705C33.0323 153.94 37.4122 155.757 41.9792 155.757H140.441C140.831 155.757 141.205 155.912 141.481 156.189C141.757 156.465 141.912 156.84 141.913 157.231Z" fill="url(#paint0_linear_0_1062)"/>
<path d="M139.558 128.042H36.5336C36.4555 128.042 36.3806 128.011 36.3254 127.956C36.2702 127.901 36.2392 127.826 36.2392 127.747C36.2392 127.669 36.2702 127.594 36.3254 127.539C36.3806 127.484 36.4555 127.453 36.5336 127.453H139.558C139.636 127.453 139.711 127.484 139.766 127.539C139.821 127.594 139.852 127.669 139.852 127.747C139.852 127.826 139.821 127.901 139.766 127.956C139.711 128.011 139.636 128.042 139.558 128.042Z" fill="#CCCCCC"/>
<path d="M139.558 135.118H36.5336C36.4555 135.118 36.3806 135.087 36.3254 135.032C36.2702 134.977 36.2392 134.902 36.2392 134.824C36.2392 134.745 36.2702 134.67 36.3254 134.615C36.3806 134.56 36.4555 134.529 36.5336 134.529H139.558C139.636 134.529 139.711 134.56 139.766 134.615C139.821 134.67 139.852 134.745 139.852 134.824C139.852 134.902 139.821 134.977 139.766 135.032C139.711 135.087 139.636 135.118 139.558 135.118Z" fill="#CCCCCC"/>
<path d="M139.558 142.195H36.5336C36.4555 142.195 36.3806 142.164 36.3254 142.108C36.2702 142.053 36.2392 141.978 36.2392 141.9C36.2392 141.822 36.2702 141.747 36.3254 141.691C36.3806 141.636 36.4555 141.605 36.5336 141.605H139.558C139.636 141.605 139.711 141.636 139.766 141.691C139.821 141.747 139.852 141.822 139.852 141.9C139.852 141.978 139.821 142.053 139.766 142.108C139.711 142.164 139.636 142.195 139.558 142.195Z" fill="#CCCCCC"/>
<path d="M139.558 149.27H36.5336C36.4555 149.27 36.3806 149.239 36.3254 149.184C36.2702 149.129 36.2392 149.054 36.2392 148.975C36.2392 148.897 36.2702 148.822 36.3254 148.767C36.3806 148.712 36.4555 148.681 36.5336 148.681H139.558C139.636 148.681 139.711 148.712 139.766 148.767C139.821 148.822 139.852 148.897 139.852 148.975C139.852 149.054 139.821 149.129 139.766 149.184C139.711 149.239 139.636 149.27 139.558 149.27Z" fill="#CCCCCC"/>
<path d="M213.652 126.412L189.643 156.258L114.99 96.0086C106.484 89.144 104.95 76.8643 111.569 68.6361C118.188 60.4078 130.493 59.2984 138.999 66.163L213.652 126.412Z" fill="#F2F2F2"/>
<path d="M214.737 126.473L214.737 126.473C214.862 126.574 214.966 126.699 215.043 126.84C215.12 126.981 215.168 127.136 215.186 127.296C215.203 127.456 215.189 127.617 215.143 127.772C215.098 127.926 215.023 128.07 214.922 128.195C214.822 128.32 214.697 128.425 214.556 128.502C214.415 128.579 214.261 128.627 214.101 128.644C213.942 128.661 213.78 128.647 213.626 128.602C213.472 128.556 213.329 128.481 213.204 128.38L213.204 128.38L136.534 66.5024C134.747 65.0596 132.695 63.9834 130.493 63.3353C128.292 62.6872 125.984 62.4799 123.702 62.7253C121.421 62.9707 119.21 63.664 117.195 64.7654C115.181 65.8669 113.404 67.355 111.964 69.1448C110.524 70.9345 109.451 72.9908 108.804 75.1962C108.158 77.4016 107.952 79.7129 108.198 81.998C108.444 84.2831 109.137 86.4974 110.237 88.5143C111.338 90.5311 112.824 92.3111 114.612 93.7525C114.612 93.7525 114.612 93.7525 114.612 93.7525L191.282 155.63C191.534 155.834 191.695 156.13 191.73 156.452C191.765 156.775 191.67 157.099 191.467 157.352C191.263 157.604 190.968 157.766 190.646 157.8C190.324 157.835 190.001 157.74 189.749 157.537L113.079 95.6592C108.966 92.3401 106.338 87.5206 105.774 82.2608C105.209 77.001 106.753 71.7318 110.067 67.6126C113.38 63.4934 118.192 60.8614 123.443 60.2956C128.694 59.7299 133.954 61.2766 138.067 64.5956L214.737 126.473Z" stroke="black" stroke-width="0.5"/>
<path d="M208.111 133.299L127.889 68.5547C127.858 68.5304 127.833 68.5004 127.815 68.4664C127.796 68.4324 127.785 68.3951 127.781 68.3566C127.776 68.3181 127.78 68.2792 127.791 68.2421C127.802 68.2049 127.82 68.1703 127.844 68.1401C127.868 68.11 127.898 68.0849 127.932 68.0663C127.966 68.0478 128.003 68.0361 128.042 68.032C128.08 68.0278 128.119 68.0313 128.156 68.0422C128.193 68.0531 128.228 68.0712 128.258 68.0955L208.481 132.84C208.511 132.865 208.536 132.895 208.555 132.929C208.573 132.963 208.585 133 208.589 133.038C208.593 133.077 208.59 133.116 208.579 133.153C208.568 133.19 208.55 133.225 208.526 133.255C208.501 133.285 208.471 133.31 208.437 133.329C208.403 133.348 208.366 133.359 208.328 133.363C208.289 133.367 208.25 133.364 208.213 133.353C208.176 133.342 208.142 133.324 208.111 133.3V133.299Z" fill="#CCCCCC"/>
<path d="M203.679 138.81L123.456 74.0647C123.396 74.0156 123.357 73.9444 123.348 73.8667C123.34 73.789 123.363 73.7112 123.412 73.6504C123.461 73.5895 123.532 73.5506 123.609 73.5422C123.687 73.5338 123.765 73.5566 123.826 73.6055L204.048 138.35C204.079 138.375 204.104 138.405 204.122 138.439C204.141 138.473 204.153 138.51 204.157 138.548C204.161 138.587 204.157 138.626 204.147 138.663C204.136 138.7 204.118 138.735 204.093 138.765C204.069 138.795 204.039 138.82 204.005 138.839C203.971 138.858 203.934 138.869 203.895 138.873C203.857 138.877 203.818 138.874 203.781 138.863C203.744 138.852 203.709 138.834 203.679 138.81Z" fill="#CCCCCC"/>
<path d="M199.247 144.32L119.024 79.5747C118.963 79.5257 118.924 79.4544 118.916 79.3767C118.907 79.2989 118.93 79.221 118.979 79.1601C119.028 79.0993 119.099 79.0603 119.177 79.052C119.255 79.0436 119.332 79.0665 119.393 79.1155L199.616 143.86C199.646 143.885 199.671 143.915 199.69 143.949C199.708 143.983 199.72 144.02 199.724 144.058C199.728 144.097 199.725 144.136 199.714 144.173C199.703 144.21 199.685 144.245 199.66 144.275C199.636 144.305 199.606 144.33 199.572 144.349C199.538 144.367 199.501 144.379 199.463 144.383C199.424 144.387 199.385 144.384 199.348 144.373C199.311 144.362 199.277 144.344 199.247 144.32V144.32Z" fill="#CCCCCC"/>
<path d="M194.814 149.83L114.591 85.085C114.561 85.0607 114.536 85.0307 114.518 84.9967C114.499 84.9627 114.488 84.9254 114.483 84.8869C114.479 84.8484 114.483 84.8095 114.494 84.7723C114.505 84.7352 114.523 84.7005 114.547 84.6704C114.571 84.6402 114.601 84.6152 114.635 84.5966C114.669 84.5781 114.706 84.5664 114.745 84.5622C114.783 84.5581 114.822 84.5616 114.859 84.5725C114.896 84.5834 114.931 84.6015 114.961 84.6258L195.184 149.371C195.214 149.395 195.239 149.425 195.257 149.459C195.276 149.493 195.288 149.53 195.292 149.569C195.296 149.607 195.293 149.646 195.282 149.683C195.271 149.721 195.253 149.755 195.228 149.785C195.204 149.816 195.174 149.841 195.14 149.859C195.106 149.878 195.069 149.889 195.031 149.894C194.992 149.898 194.953 149.894 194.916 149.883C194.879 149.872 194.844 149.854 194.814 149.83Z" fill="#CCCCCC"/>
<path d="M218.706 159H0.294355C0.216287 159 0.141417 158.969 0.0862143 158.913C0.0310121 158.858 0 158.783 0 158.705C0 158.627 0.0310121 158.552 0.0862143 158.497C0.141417 158.441 0.216287 158.41 0.294355 158.41H218.706C218.784 158.41 218.859 158.441 218.914 158.497C218.969 158.552 219 158.627 219 158.705C219 158.783 218.969 158.858 218.914 158.913C218.859 158.969 218.784 159 218.706 159Z" fill="#CCCCCC"/>
<path d="M99.2669 102.418L99.2658 114.919L96.3718 114.919L94.833 102.418L99.2669 102.418Z" fill="#F4F7FA" stroke="black" stroke-width="0.5"/>
<path d="M93.7468 114.456H99.9867V118.048H89.9187C89.946 117.629 90.0417 117.217 90.2026 116.828C90.3955 116.361 90.6781 115.938 91.0343 115.581C91.3906 115.224 91.8135 114.941 92.2789 114.748C92.7443 114.555 93.2431 114.456 93.7468 114.456Z" fill="#F4F7FA" stroke="black" stroke-width="0.5"/>
<path d="M64.8878 102.418L64.8867 114.919L61.9927 114.919L60.4539 102.418L64.8878 102.418Z" fill="#F4F7FA" stroke="black" stroke-width="0.5"/>
<path d="M59.3677 114.456H65.6076V118.048H55.5397C55.5669 117.629 55.6627 117.217 55.8236 116.828C56.0164 116.361 56.299 115.938 56.6553 115.581C57.0115 115.224 57.4344 114.941 57.8998 114.748C58.3652 114.555 58.864 114.456 59.3677 114.456Z" fill="#F4F7FA" stroke="black" stroke-width="0.5"/>
<path d="M76.3766 18.7316V17.2574C76.3766 14.7356 77.3767 12.3171 79.157 10.534C80.9372 8.7508 83.3518 7.74902 85.8695 7.74902H85.8695C88.3872 7.74902 90.8018 8.7508 92.582 10.534C94.3623 12.3171 95.3625 14.7356 95.3625 17.2574V18.7316C95.3625 20.5496 94.6414 22.2932 93.358 23.5788C92.0745 24.8643 90.3338 25.5865 88.5187 25.5865H83.2203C82.3216 25.5865 81.4317 25.4092 80.6013 25.0647C79.771 24.7202 79.0166 24.2153 78.3811 23.5788C77.7455 22.9422 77.2414 22.1866 76.8975 21.3549C76.5536 20.5232 76.3766 19.6318 76.3766 18.7316Z" fill="#7247FF"/>
<path d="M92.8491 18.8528C92.8491 22.7144 89.7238 25.8442 85.8695 25.8442C82.0151 25.8442 78.8898 22.7144 78.8898 18.8528C78.8898 14.9911 82.0151 11.8613 85.8695 11.8613C89.7238 11.8613 92.8491 14.9911 92.8491 18.8528Z" fill="#F4F7FA" stroke="black" stroke-width="0.5"/>
<path d="M45.9229 45.5357C45.98 44.9305 46.2527 44.3666 46.6903 43.9468L46.7165 43.922C46.9833 43.6696 47.3021 43.479 47.6504 43.3634C47.9987 43.2478 48.3681 43.2101 48.7325 43.253C49.0969 43.2959 49.4475 43.4183 49.7596 43.6116C50.0717 43.8048 50.3378 44.0644 50.539 44.3718L50.6305 44.5117L50.7947 44.4806L56.7991 43.3429L58.2158 46.4684L49.7582 47.9479L49.7158 47.9553L49.6782 47.9765C49.14 48.2809 48.509 48.377 47.9048 48.2465C47.3006 48.1161 46.7651 47.7681 46.3998 47.2685C46.0345 46.7689 45.8648 46.1524 45.9229 45.5357Z" fill="#F4F7FA" stroke="black" stroke-width="0.5"/>
<mask id="path-21-inside-1_0_1062" fill="white">
<path d="M80.233 30.6542L80.314 30.7772L70.1512 37.483L53.0026 42.9679C52.7753 43.0411 52.5803 43.1909 52.4508 43.3918C52.3214 43.5928 52.2655 43.8325 52.2926 44.0701L52.6667 47.2975C52.6833 47.4404 52.7295 47.5782 52.8024 47.7021C52.8752 47.826 52.9732 47.9332 53.0898 48.017C53.2065 48.1008 53.3394 48.1593 53.4799 48.1886C53.6205 48.218 53.7656 48.2176 53.906 48.1875L70.0454 44.7224C70.8265 44.5556 71.565 44.2299 72.2152 43.7655L83.6326 35.629C84.0465 35.3324 84.3768 34.9336 84.5913 34.4713C84.8058 34.0091 84.8972 33.4991 84.8567 32.9909C84.8148 32.4821 84.6414 31.993 84.3535 31.5716C84.0657 31.1503 83.6733 30.8113 83.2149 30.5879C82.7566 30.3645 82.2481 30.2645 81.7395 30.2977C81.2308 30.3309 80.7396 30.4962 80.314 30.7772L80.233 30.6542Z"/>
</mask>
<path d="M80.233 30.6542L80.314 30.7772L70.1512 37.483L53.0026 42.9679C52.7753 43.0411 52.5803 43.1909 52.4508 43.3918C52.3214 43.5928 52.2655 43.8325 52.2926 44.0701L52.6667 47.2975C52.6833 47.4404 52.7295 47.5782 52.8024 47.7021C52.8752 47.826 52.9732 47.9332 53.0898 48.017C53.2065 48.1008 53.3394 48.1593 53.4799 48.1886C53.6205 48.218 53.7656 48.2176 53.906 48.1875L70.0454 44.7224C70.8265 44.5556 71.565 44.2299 72.2152 43.7655L83.6326 35.629C84.0465 35.3324 84.3768 34.9336 84.5913 34.4713C84.8058 34.0091 84.8972 33.4991 84.8567 32.9909C84.8148 32.4821 84.6414 31.993 84.3535 31.5716C84.0657 31.1503 83.6733 30.8113 83.2149 30.5879C82.7566 30.3645 82.2481 30.2645 81.7395 30.2977C81.2308 30.3309 80.7396 30.4962 80.314 30.7772L80.233 30.6542Z" fill="#F4F7FA"/>
<path d="M80.233 30.6542L80.6505 30.3791L79.8155 30.9293L80.233 30.6542ZM80.314 30.7772L80.5894 31.1945L81.0065 30.9193L80.7315 30.5021L80.314 30.7772ZM70.1512 37.483L70.3035 37.9593L70.3691 37.9383L70.4266 37.9004L70.1512 37.483ZM53.0026 42.9679L52.8503 42.4917L52.8494 42.4919L53.0026 42.9679ZM52.2926 44.0701L51.7958 44.1268L51.7959 44.1276L52.2926 44.0701ZM52.6667 47.2975L52.17 47.3551L52.17 47.3552L52.6667 47.2975ZM53.906 48.1875L54.0109 48.6764L54.011 48.6763L53.906 48.1875ZM70.0454 44.7224L69.941 44.2334L69.9404 44.2335L70.0454 44.7224ZM72.2152 43.7655L71.925 43.3583L71.9246 43.3586L72.2152 43.7655ZM83.6326 35.629L83.9228 36.0361L83.9238 36.0354L83.6326 35.629ZM84.8567 32.9909L85.3551 32.9512L85.355 32.9499L84.8567 32.9909ZM80.314 30.7772L79.8965 31.0523L80.1719 31.4703L80.5896 31.1944L80.314 30.7772ZM79.8155 30.9293L79.8965 31.0523L80.7315 30.5021L80.6505 30.3791L79.8155 30.9293ZM80.0387 30.3599L69.8758 37.0657L70.4266 37.9004L80.5894 31.1945L80.0387 30.3599ZM69.9989 37.0068L52.8503 42.4917L53.1549 43.4441L70.3035 37.9593L69.9989 37.0068ZM52.8494 42.4919C52.5119 42.6006 52.2225 42.823 52.0305 43.1211L52.8712 43.6626C52.9381 43.5588 53.0387 43.4815 53.1558 43.4439L52.8494 42.4919ZM52.0305 43.1211C51.8385 43.4191 51.7556 43.7745 51.7958 44.1268L52.7894 44.0133C52.7753 43.8904 52.8043 43.7664 52.8712 43.6626L52.0305 43.1211ZM51.7959 44.1276L52.17 47.3551L53.1634 47.2399L52.7893 44.0125L51.7959 44.1276ZM52.17 47.3552C52.1947 47.5671 52.2632 47.7716 52.3714 47.9555L53.2334 47.4486C53.1958 47.3847 53.1719 47.3136 53.1634 47.2398L52.17 47.3552ZM52.3714 47.9555C52.4795 48.1394 52.6249 48.2987 52.7982 48.4232L53.3815 47.6109C53.3214 47.5678 53.2709 47.5125 53.2334 47.4486L52.3714 47.9555ZM52.7982 48.4232C52.9715 48.5476 53.1689 48.6345 53.3777 48.6781L53.5821 47.6992C53.5099 47.6841 53.4416 47.654 53.3815 47.6109L52.7982 48.4232ZM53.3777 48.6781C53.5866 48.7217 53.8022 48.7211 54.0109 48.6764L53.8012 47.6986C53.729 47.7141 53.6544 47.7143 53.5821 47.6992L53.3777 48.6781ZM54.011 48.6763L70.1504 45.2112L69.9404 44.2335L53.8011 47.6986L54.011 48.6763ZM70.1498 45.2113C70.9979 45.0303 71.7999 44.6766 72.5059 44.1723L71.9246 43.3586C71.3302 43.7832 70.655 44.081 69.941 44.2334L70.1498 45.2113ZM72.5054 44.1727L83.9228 36.0361L83.3424 35.2218L71.925 43.3583L72.5054 44.1727ZM83.9238 36.0354C84.4079 35.6886 84.7941 35.2222 85.0448 34.6818L84.1377 34.2609C83.9595 34.645 83.6852 34.9762 83.3414 35.2225L83.9238 36.0354ZM85.0448 34.6818C85.2956 34.1413 85.4025 33.5452 85.3551 32.9512L84.3582 33.0307C84.3919 33.453 84.3159 33.8768 84.1377 34.2609L85.0448 34.6818ZM85.355 32.9499C85.306 32.3548 85.1032 31.7825 84.7664 31.2896L83.9407 31.8537C84.1796 32.2034 84.3236 32.6095 84.3583 33.0319L85.355 32.9499ZM84.7664 31.2896C84.4296 30.7966 83.9704 30.3999 83.434 30.1384L82.9959 31.0374C83.3761 31.2227 83.7018 31.504 83.9407 31.8537L84.7664 31.2896ZM83.434 30.1384C82.8975 29.877 82.3023 29.7599 81.7069 29.7988L81.772 30.7967C82.1939 30.7691 82.6157 30.8521 82.9959 31.0374L83.434 30.1384ZM81.7069 29.7988C81.1115 29.8376 80.5365 30.0311 80.0385 30.36L80.5896 31.1944C80.9426 30.9613 81.3501 30.8242 81.772 30.7967L81.7069 29.7988ZM80.7316 30.5021L80.6505 30.3791L79.8155 30.9293L79.8965 31.0523L80.7316 30.5021Z" fill="black" mask="url(#path-21-inside-1_0_1062)"/>
<path d="M100.374 110.084C100.657 109.985 100.898 109.793 101.057 109.538C101.216 109.284 101.284 108.983 101.249 108.685C100.318 100.432 95.3679 58.9298 89.3461 52.3497L100.374 110.084ZM100.374 110.084L96.6488 111.404L100.374 110.084ZM89.1834 52.5424C89.8974 53.3335 90.6126 54.6579 91.3162 56.414C92.0246 58.182 92.7126 60.3648 93.3739 62.8322C94.6965 67.7666 95.9074 73.8206 96.9601 79.9324C99.0654 92.1548 100.535 104.588 101 108.713L101.001 108.714C101.029 108.955 100.974 109.2 100.845 109.406C100.716 109.612 100.521 109.768 100.292 109.848L100.291 109.849L96.5654 111.168L96.5652 111.168C96.4514 111.209 96.3315 111.229 96.2108 111.229C96.0011 111.229 95.7959 111.168 95.6203 111.053C95.4456 110.939 95.3077 110.777 95.2231 110.586L79.7975 72.408L79.7976 72.408L79.7949 72.4019C79.7386 72.2723 79.6439 72.1631 79.5236 72.0889C79.4033 72.0147 79.2632 71.9792 79.122 71.9871C78.9809 71.9951 78.8457 72.0462 78.7344 72.1334C78.6243 72.2198 78.543 72.3376 78.5012 72.4711L65.9161 109.639L65.916 109.639L65.9139 109.646C65.8707 109.786 65.7994 109.916 65.7042 110.028C65.6091 110.14 65.4921 110.231 65.3606 110.296C65.229 110.36 65.0857 110.397 64.9393 110.405C64.793 110.412 64.6467 110.389 64.5095 110.338C64.5095 110.338 64.5095 110.338 64.5094 110.338L60.2889 108.752L60.2882 108.752C60.1025 108.683 59.9395 108.563 59.8174 108.407C59.6953 108.251 59.6189 108.063 59.5967 107.866L59.5966 107.866C59.1267 103.765 59.7983 98.0777 61.0852 91.8256C62.3707 85.58 64.2651 78.795 66.2253 72.5101C69.9799 60.472 73.9715 50.2833 74.3748 49.2613L89.1834 52.5424Z" fill="#F4F7FA" stroke="black" stroke-width="0.5"/>
<path d="M92.4161 29.1698C91.5977 28.5023 90.6418 28.0247 89.6172 27.7713C88.5926 27.5178 87.5246 27.4948 86.49 27.7039C85.0709 27.9836 83.6692 28.3451 82.2917 28.7867L92.4161 29.1698ZM92.4161 29.1698C93.2449 29.8416 93.9148 30.6889 94.3777 31.6509M92.4161 29.1698L94.3777 31.6509M94.3777 31.6509C94.8407 32.6129 95.0851 33.6656 95.0936 34.7335L94.3777 31.6509ZM74.4681 49.8687C74.9626 49.0503 75.5311 47.9574 75.8946 46.9938C76.079 46.5049 76.216 46.0352 76.2586 45.6453C76.28 45.4504 76.2793 45.2623 76.2411 45.0961C76.2025 44.9279 76.1216 44.7672 75.9722 44.6566L75.9721 44.6565C74.6724 43.6939 74.0158 42.0971 74.0742 39.8443C74.2009 34.9548 77.5275 30.604 82.3643 29.0259L82.368 29.0247C83.7363 28.5861 85.1287 28.227 86.5384 27.9492L86.5396 27.949C87.5379 27.7472 88.5684 27.7694 89.5572 28.014C90.5459 28.2585 91.4683 28.7194 92.2581 29.3635L92.2587 29.364C93.0588 30.0125 93.7055 30.8305 94.1525 31.7593C94.5994 32.688 94.8354 33.7044 94.8436 34.7354L94.8436 34.7359C94.8952 40.0694 94.0716 47.4367 89.9229 52.4764C89.7633 52.6681 89.5414 52.7973 89.2962 52.8413L89.2958 52.8413C87.2856 53.2055 85.248 53.3964 83.2052 53.4117C81.3896 53.4117 79.4877 53.2298 77.8919 52.6833C76.3147 52.1431 75.0662 51.2581 74.4681 49.8687Z" fill="#F4F7FA" stroke="black" stroke-width="0.5"/>
<path d="M82.0862 53.5297L82.0865 53.5285C82.2679 52.8768 82.6987 52.3232 83.2852 51.988C83.8712 51.6531 84.5654 51.5632 85.2172 51.7377C85.3497 51.7749 85.4789 51.8229 85.6035 51.8812L85.7546 51.9518L85.8779 51.8395L90.4384 47.6824L93.2807 49.6005L86.7926 55.3513L86.7605 55.3798L86.7397 55.4173C86.4628 55.9173 86.027 56.3101 85.5016 56.5333C84.9764 56.7564 84.3919 56.7973 83.8409 56.6494C83.5206 56.5615 83.2208 56.4109 82.9588 56.2063C82.6967 56.0015 82.4776 55.7467 82.3144 55.4566L82.0999 55.5773L82.3144 55.4566C82.1511 55.1665 82.0469 54.8468 82.0077 54.5161C81.9685 54.1853 81.9952 53.8501 82.0862 53.5297Z" fill="#F4F7FA" stroke="black" stroke-width="0.5"/>
<path d="M89.6698 53.266H89.6697C89.4222 53.2661 89.1823 53.1804 88.9908 53.0234L88.9906 53.0232L87.1348 51.5043C87.0094 51.4016 86.9086 51.2717 86.8403 51.1244L86.6139 51.2294L86.8403 51.1244C86.7719 50.9771 86.7377 50.8162 86.7402 50.6538C86.7427 50.4913 86.7819 50.3316 86.8548 50.1865L86.6316 50.0744L86.8548 50.1865C86.9276 50.0414 87.0323 49.9147 87.1609 49.8159L87.0088 49.6179L87.1609 49.8159L94.9441 43.8367L94.9446 43.8363C95.089 43.7249 95.1836 43.561 95.208 43.3803C95.2324 43.1996 95.1847 43.0165 95.0751 42.8707L95.0748 42.8702L90.2708 36.5088L90.2706 36.5085C89.7481 35.8189 89.486 34.9663 89.5307 34.1016C89.5755 33.237 89.9242 32.4161 90.5151 31.7844L90.5161 31.7833C91.1383 31.1102 91.9903 30.6961 92.903 30.623C93.8097 30.5503 94.7105 30.8195 95.4292 31.3773L95.4339 31.3822L100.44 38.5615L100.461 38.5921L100.49 38.6151C101.002 39.0173 101.415 39.5327 101.695 40.121C101.976 40.7093 102.117 41.3546 102.107 42.0065C102.097 42.6584 101.937 43.2992 101.639 43.8789C101.342 44.4585 100.914 44.9614 100.39 45.3481L100.39 45.3481L100.387 45.3506L90.3081 53.056C90.1231 53.1924 89.8995 53.266 89.6698 53.266Z" fill="#F4F7FA" stroke="black" stroke-width="0.5"/>
<path d="M79.4656 16.8152V13.2223L85.8694 10.4214L91.9757 13.2223V16.8152C91.9757 16.9716 91.9136 17.1216 91.8032 17.2322C91.6928 17.3428 91.5431 17.4049 91.3869 17.4049H80.0543C79.8982 17.4049 79.7484 17.3428 79.638 17.2322C79.5276 17.1216 79.4656 16.9716 79.4656 16.8152Z" fill="#7247FF"/>
<path d="M85.5754 8.22577C84.6338 5.2071 86.6113 1.74757 89.5347 0.5527C92.4581 -0.642167 95.9556 0.193082 98.4223 2.16718C100.889 4.14128 102.42 7.09811 103.231 10.1546C104.041 13.2111 104.195 16.3982 104.345 19.5573C107.937 20.2181 110.38 24.4852 109.136 27.9242C107.892 31.3631 103.286 33.0716 100.106 31.2742C96.9252 29.4767 96.004 24.6449 98.2995 21.8C99.3856 20.4539 99.9924 18.7833 100.024 17.0528C100.055 15.3223 99.5087 13.6308 98.4718 12.2462C97.4349 10.8617 95.9665 9.86323 94.2991 9.40899C92.6317 8.95474 90.8606 9.07069 89.2664 9.73845C87.4962 10.4799 85.2751 8.5534 85.5754 8.22577Z" fill="#7247FF"/>
<path d="M45.217 29.8025C40.9166 29.7742 36.67 28.8427 32.7516 27.068C32.5183 26.9638 32.3203 26.794 32.1817 26.5792C32.0431 26.3643 31.9699 26.1137 31.971 25.858V15.1207C31.9714 14.7689 32.1111 14.4317 32.3594 14.183C32.6077 13.9342 32.9444 13.7943 33.2956 13.7939H57.1383C57.4895 13.7943 57.8262 13.9343 58.0745 14.183C58.3229 14.4317 58.4625 14.7689 58.4629 15.1207V25.858C58.464 26.1138 58.3908 26.3643 58.2522 26.5792C58.1136 26.794 57.9156 26.9638 57.6823 27.068C53.7639 28.8427 49.5173 29.7743 45.217 29.8025Z" fill="url(#paint1_linear_0_1062)"/>
<path d="M45.2138 21.1043C45.0371 21.1044 44.8621 21.0692 44.6991 21.0006L25.7921 13.0107C25.5483 12.9077 25.3409 12.7339 25.1966 12.5117C25.0523 12.2895 24.9778 12.0291 24.9826 11.7641C24.9875 11.4991 25.0715 11.2416 25.2238 11.0248C25.3761 10.8081 25.5897 10.642 25.8372 10.548L44.7444 3.36352C45.0489 3.24728 45.3856 3.24799 45.6897 3.36554L64.3435 10.55C64.5896 10.6447 64.8018 10.8109 64.953 11.0271C65.1042 11.2433 65.1876 11.4998 65.1925 11.7638C65.1973 12.0278 65.1235 12.2872 64.9803 12.5089C64.8372 12.7306 64.6313 12.9045 64.3889 13.0083L45.7348 20.998C45.5701 21.0683 45.3929 21.1044 45.2138 21.1043Z" fill="url(#paint2_linear_0_1062)"/>
<path d="M34.1788 27.7988C35.1542 27.7988 35.945 27.0067 35.945 26.0297C35.945 25.0528 35.1542 24.2607 34.1788 24.2607C33.2034 24.2607 32.4127 25.0528 32.4127 26.0297C32.4127 27.0067 33.2034 27.7988 34.1788 27.7988Z" fill="#3F3D56"/>
<path opacity="0.2" d="M64.4534 11.8742L45.7992 19.8639C45.6538 19.9262 45.4973 19.9585 45.3391 19.9589C45.181 19.9593 45.0243 19.9278 44.8786 19.8662L25.9716 11.8765C25.7342 11.7786 25.5361 11.6042 25.4086 11.3809C25.3253 11.5257 25.2736 11.6866 25.2571 11.8529C25.2406 12.0192 25.2596 12.1872 25.3128 12.3456C25.3661 12.504 25.4523 12.6493 25.5659 12.7717C25.6795 12.8942 25.8178 12.991 25.9716 13.0559L44.8786 21.0455C45.0243 21.1071 45.181 21.1386 45.3391 21.1383C45.4973 21.1379 45.6538 21.1056 45.7992 21.0433L64.4534 13.0535C64.6064 12.9881 64.7439 12.891 64.8567 12.7685C64.9695 12.646 65.055 12.5009 65.1077 12.3428C65.1604 12.1847 65.1791 12.0173 65.1624 11.8514C65.1457 11.6856 65.0941 11.5252 65.011 11.3809C64.8845 11.6024 64.6884 11.7758 64.4534 11.8742Z" fill="black"/>
<path d="M34.3272 26.023C34.4053 26.023 34.4802 25.992 34.5354 25.9367C34.5906 25.8814 34.6216 25.8064 34.6216 25.7282V15.8626L44.3297 12.3201C44.4078 12.3213 44.4831 12.2914 44.5392 12.2369C44.5952 12.1824 44.6273 12.1079 44.6285 12.0297C44.6296 11.9515 44.5998 11.876 44.5454 11.8199C44.491 11.7638 44.4166 11.7316 44.3385 11.7305L34.6303 15.2729C34.5522 15.2711 34.4745 15.2852 34.402 15.3144C34.3295 15.3435 34.2636 15.3871 34.2084 15.4425C34.1526 15.4973 34.1084 15.5626 34.0782 15.6348C34.048 15.7069 34.0326 15.7844 34.0329 15.8626V25.7282C34.0329 25.8064 34.0639 25.8814 34.1191 25.9367C34.1743 25.992 34.2492 26.023 34.3272 26.023Z" fill="#3F3D56"/>
</g>
<defs>
<linearGradient id="paint0_linear_0_1062" x1="21.1681" y1="120.292" x2="146.292" y2="122.901" gradientUnits="userSpaceOnUse">
<stop stop-color="#4614E8"/>
<stop offset="1" stop-color="#BCA7FF"/>
</linearGradient>
<linearGradient id="paint1_linear_0_1062" x1="31.8281" y1="14.5784" x2="59.4372" y2="14.8988" gradientUnits="userSpaceOnUse">
<stop stop-color="#4614E8"/>
<stop offset="1" stop-color="#BCA7FF"/>
</linearGradient>
<linearGradient id="paint2_linear_0_1062" x1="24.7655" y1="4.15047" x2="66.6667" y2="4.81316" gradientUnits="userSpaceOnUse">
<stop stop-color="#4614E8"/>
<stop offset="1" stop-color="#BCA7FF"/>
</linearGradient>
<clipPath id="clip0_0_1062">
<rect width="219" height="159" fill="white"/>
</clipPath>
</defs>
</svg>
